<?xml version="1.0" encoding="utf-8" ?>
<svg baseProfile="full" height="200mm" version="1.1" viewBox="0,0,200,200" width="200mm" xmlns="http://www.w3.org/2000/svg" xmlns:ev="http://www.w3.org/2001/xml-events" xmlns:xlink="http://www.w3.org/1999/xlink"><defs /><rect fill="#1a1a1a" height="200" width="200" x="0" y="0" /><text alignment-baseline="middle" fill="#e1ed5e" style="dominant-baseline: central; font-size:9.0px; font-family:Arial;" text-anchor="middle" x="100.0" y="100.0">2022</text><line stroke="#e1ed5e" stroke-width="0.3" x1="100.0" x2="100.0" y1="15.0" y2="10.0" /><path d="M 100.0 14.0 a86.0,86.0 0 0,1 42.46469731375804,11.215312516191453" fill="none" id="id49" stroke="none" /><text fill="#e1ed5e" style="font-size:6.75px; font-family:Arial;" text-anchor="middle"><textPath startOffset="22.20632615414155" xlink:href="#id49">January</textPath></text><line stroke="#e1ed5e" stroke-width="0.3" x1="143.23703022742887" x2="145.7803849466894" y1="26.81831364943548" y2="22.513508569990506" /><path d="M 143.74570117128098 25.957352633546492 a86.0,86.0 0 0,1 28.547481713284135,27.462654790039103" fill="none" id="id50" stroke="none" /><text fill="#e1ed5e" style="font-size:6.75px; font-family:Arial;" text-anchor="middle"><textPath startOffset="19.985693538727396" xlink:href="#id50">February</textPath></text><line stroke="#e1ed5e" stroke-width="0.3" x1="172.23445277983987" x2="176.4835382374775" y1="55.19839476539836" y2="52.563006222186495" /><path d="M 173.08426987136738 54.67131705675599 a86.0,86.0 0 0,1 12.851231095245387,41.99856678651699" fill="none" id="id51" stroke="none" /><text fill="#e1ed5e" style="font-size:6.75px; font-family:Arial;" text-anchor="middle"><textPath startOffset="22.20632615414155" xlink:href="#id51">March</textPath></text><line stroke="#e1ed5e" stroke-width="0.3" x1="184.98032266829074" x2="189.97916517819016" y1="98.17113171792111" y2="98.06355123074" /><path d="M 185.9800911702706 98.14961562048488 a86.0,86.0 0 0,1 -9.607161424134198,41.387399972396054" fill="none" id="id52" stroke="none" /><text fill="#e1ed5e" style="font-size:6.75px; font-family:Arial;" text-anchor="middle"><textPath startOffset="21.466115282336823" xlink:href="#id52">April</textPath></text><path d="M 120.99824983174949 100.27111621757518 l 26.237215721935282 0.33875845573948105 a47.239402549042595,47.239402549042595 0 0,0 -0.017496433896388205,0.8129905322483049 l -26.227497225353886 -0.7903388037779008" fill="red" stroke="none" /><line stroke="#e1ed5e" stroke-width="0.3" x1="174.80103733775053" x2="179.2010983576182" y1="140.37084112569926" y2="142.7455964860345" /><path d="M 175.68104954172406 140.8457921977663 a86.0,86.0 0 0,1 -30.038265399797805,32.042727171017184" fill="none" id="id53" stroke="none" /><text fill="#e1ed5e" style="font-size:6.75px; font-family:Arial;" text-anchor="middle"><textPath startOffset="22.206326154141568" xlink:href="#id53">May</textPath></text><path d="M 118.30583269289576 110.29060199501025 l 28.163300398203937 15.831965697813043 a53.30824395067307,53.30824395067307 0 0,0 -0.45654196491193044,0.7960193978606953 l -27.886606437139626 -16.314404941532054" fill="red" stroke="none" /><line stroke="#e1ed5e" stroke-width="0.3" x1="143.8653032363475" x2="146.44561519142675" y1="172.8068346515853" y2="177.08958963109032" /><path d="M 144.38136562736335 173.6633856474863 a86.0,86.0 0 0,1 -40.68145358897372,12.25698825130547" fill="none" id="id54" stroke="none" /><text fill="#e1ed5e" style="font-size:6.75px; font-family:Arial;" text-anchor="middle"><textPath startOffset="21.466115282336833" xlink:href="#id54">June</textPath></text><path d="M 110.21172684928248 118.3499491758327 l 9.179554549607825 16.49518851494964 a39.8773797406566,39.8773797406566 0 0,0 -0.6026747929588432,0.32862634987838873 l -8.894256944780334 -16.6507555165878" fill="red" stroke="none" /><path d="M 109.89434966115114 118.52300852407294 l 8.724019703632198 16.332057878350632 a39.5160642235643,39.5160642235643 0 0,0 -0.6027311841502341,0.31532046871240754 l -8.441597616955468 -16.479807766007756" fill="red" stroke="none" /><path d="M 108.2653958097858 119.30500536409082 l 4.82816923840838 11.276874718553564 a33.26699317733019,33.26699317733019 0 0,0 -0.5283567467306123,0.2208531629843969 l -4.633341032180307 -11.358312924557934" fill="red" stroke="none" /><path d="M 105.53697534728816 120.25689768951611 l 10.948371284559736 40.05436597921351 a62.52371693118703,62.52371693118703 0 0,0 -1.04060174373326,0.27483237840202557 l -10.257279098014978 -40.236889706919115" fill="red" stroke="none" /><path d="M 104.48393922423573 120.51570834832081 l 8.666503542905444 39.6525131573884 a61.58854620894979,61.58854620894979 0 0,0 -1.0376454060417974,0.21744868367336584 l -7.9826666754342686 -39.795817821788305" fill="red" stroke="none" /><path d="M 102.34483914955558 120.86867818915974 l 4.693741145729472 41.773515037059546 a63.03638619689559,63.03638619689559 0 0,0 -1.0793252240087703,0.11187647256309582 l -3.9739833251150993 -41.848120878078404" fill="red" stroke="none" /><path d="M 100.90346689309514 120.98055641714683 l 1.651250618058489 38.34579553030328 a59.38133222616778,59.38133222616778 0 0,0 -1.0215841344647871,0.035185423172252324 l -0.9909461319190495 -38.36853775190162" fill="red" stroke="none" /><line stroke="#e1ed5e" stroke-width="0.3" x1="102.19456741930631" x2="102.32365962044197" y1="184.97166512339345" y2="189.96999836594603" /><path d="M 102.22038585953345 185.97133177190398 a86.0,86.0 0 0,1 -42.740103519485714,-10.115201625700543" fill="none" id="id55" stroke="none" /><text fill="#e1ed5e" style="font-size:6.75px; font-family:Arial;" text-anchor="middle"><textPath startOffset="22.20632615414155" xlink:href="#id55">July</textPath></text><path d="M 100.54218724476979 120.99299961872073 l 1.0847131173194944 41.9991105987341 a63.01311573344191,63.01311573344191 0 0,0 -1.0845466710249736,0.018671454493442104 l -0.3616067564018527 -42.0115595305067" fill="red" stroke="none" /><path d="M 100.18074693466247 120.99922214144158 l 0.08738279971882625 10.15215459152025 a31.152530650227675,31.152530650227675 0 0,0 -0.5362594687625564,0.0 l 0.08738279971881925 -10.15215459152025" fill="red" stroke="none" /><path d="M 98.73552117531835 120.96189622390904 l -2.8556465409817897 47.339477163087864 a68.425529150886,68.425529150886 0 0,0 -1.1750854250103033,-0.08104077082532017 l 3.670094726771023 -47.28330804774625" fill="red" stroke="none" /><path d="M 98.01472825383883 120.90594882070398 l -5.532433100189402 58.2594113224932 a79.52150735970085,79.52150735970085 0 0,0 -1.361587710254135,-0.14113413336409147 l 6.5344534070491305 -58.15554782067335" fill="red" stroke="none" /><path d="M 97.65516085044442 120.86867818915974 l -6.52049557920358 58.03132547579153 a79.39650331206197,79.39650331206197 0 0,0 -1.356820368776599,-0.1642920510705601 l 7.518443371031569 -57.91048789599562" fill="red" stroke="none" /><path d="M 93.76903079525671 120.05430185196036 l -13.823517429386516 44.490829929590944 a67.58887830742803,67.58887830742803 0 0,0 -1.10806705288064,-0.35476807872815724 l 14.587305827358097 -44.246289004203085" fill="red" stroke="none" /><path d="M 93.42475214034765 119.94407469862007 l -14.867317690166335 45.09562238714912 a68.48317906148111,68.48317906148111 0 0,0 -1.1163745227345054,-0.37873485066292467 l 15.641361945838065 -44.833024549588075" fill="red" stroke="none" /><path d="M 93.08242187328487 119.8279376855182 l -13.890355855362381 39.8140946563595 a63.16757188995062,63.16757188995062 0 0,0 -1.0235566246031298,-0.36701098918229125 l 14.573632040595237 -39.56909612613725" fill="red" stroke="none" /><path d="M 91.40352486487194 119.15986991738527 l -20.768834272725023 46.28968929079755 a71.73539013042567,71.73539013042567 0 0,0 -1.1222557854264201,-0.5151725879189344 l 21.562558053918863 -45.92532963254454" fill="red" stroke="none" /><path d="M 91.07499286063937 119.00905698771935 l -18.024288370920583 38.38929419954071 a63.4100563595121,63.4100563595121 0 0,0 -0.9840254328074134,-0.4723920068746379 l 18.682426471728242 -38.073347916166504" fill="red" stroke="none" /><line stroke="#e1ed5e" stroke-width="0.3" x1="58.666819895761336" x2="56.23545636021788" y1="174.27360380694188" y2="178.64263932499728" /><path d="M 58.180547188652646 175.14741091055294 a86.0,86.0 0 0,1 -31.652253787137756,-30.449443065178592" fill="none" id="id56" stroke="none" /><text fill="#e1ed5e" style="font-size:6.75px; font-family:Arial;" text-anchor="middle"><textPath startOffset="22.20632615414155" xlink:href="#id56">August</textPath></text><path d="M 89.4739219176387 118.17145234162733 l -21.222655567743047 36.63724239878559 a63.340153990443014,63.340153990443014 0 0,0 -0.9387376655159856,-0.55462275937602 l 21.850161104287416 -36.26650106711582" fill="red" stroke="none" /><path d="M 88.8546689885994 117.79835938074946 l -21.07264836421596 33.65163119039077 a60.7050222371928,60.7050222371928 0 0,0 -0.8808535706104204,-0.5622024249078147 l 21.648783736873305 -33.28391433665915" fill="red" stroke="none" /><path d="M 87.65650970185807 116.9893568818739 l -31.12036045126086 42.8335014836616 a73.94511954814382,73.94511954814382 0 0,0 -1.0233125288041245,-0.7570221448618819 l 31.85305795048355 -42.291469390059945" fill="red" stroke="none" /><path d="M 86.79598089348748 116.32954008644616 l -31.668982666384558 39.16534183842782 a71.36713675051095,71.36713675051095 0 0,0 -0.9486047479668447,-0.7806371268942595 l 32.338457542896094 -38.61440959267638" fill="red" stroke="none" /><path d="M 85.70375840098266 115.38237550388516 l -29.417302104314107 31.652234200553394 a64.21159095639925,64.21159095639925 0 0,0 -0.803146855285751,-0.7594254815718002 l 29.957784793990676 -31.141174082235665" fill="red" stroke="none" /><path d="M 85.18274418774928 114.88116024355367 l -29.871762060591387 30.00059414601171 a63.336247090623175,63.336247090623175 0 0,0 -0.7659444629744268,-0.7758976971262992 l 30.383747148621346 -29.481955954904745" fill="red" stroke="none" /><path d="M 84.9287848128048 114.62390073753433 l -31.28438716437307 30.35586492820338 a64.59118506980188,64.59118506980188 0 0,0 -0.7673846435040411,-0.8045997307506115 l 31.802278359256068 -29.812858080870267" fill="red" stroke="none" /><path d="M 82.6465618267979 111.8261652097733 l -32.27014295063011 21.991725101858194 a60.051224039840314,60.051224039840314 0 0,0 -0.574767121347257,-0.8591988609870482 l 32.64391317738809 -21.432989326665325" fill="red" stroke="none" /><path d="M 82.24976979558568 111.22182372390057 l -37.36675466169453 23.62353215247281 a65.20798146609033,65.20798146609033 0 0,0 -0.5916393450079417,-0.9539110062213718 l 37.76785864637043 -22.97682481488617" fill="red" stroke="none" /><line stroke="#e1ed5e" stroke-width="0.3" x1="26.63291911575756" x2="22.317208475507996" y1="142.92168965132927" y2="145.44649492493687" /><path d="M 25.769776987707644 143.4266507060508 a86.0,86.0 0 0,1 -11.730757126820373,-40.83630448921669" fill="none" id="id57" stroke="none" /><text fill="#e1ed5e" style="font-size:6.75px; font-family:Arial;" text-anchor="middle"><textPath startOffset="21.46611528233685" xlink:href="#id57">September</textPath></text><path d="M 79.1416061653843 102.43462659150553 l -41.375060990234594 4.829366273869874 a62.65595336266863,62.65595336266863 0 0,0 -0.11581713841886787,-1.072322861636127 l 41.45206043015451 -4.116447090348965" fill="red" stroke="none" /><line stroke="#e1ed5e" stroke-width="0.3" x1="15.007084014347285" x2="10.007500721073583" y1="101.09737516637583" y2="101.16192664675087" /><path d="M 14.007167355692545 101.11028546245083 a86.0,86.0 0 0,1 10.666146001902534,-42.60595125391555" fill="none" id="id58" stroke="none" /><text fill="#e1ed5e" style="font-size:6.75px; font-family:Arial;" text-anchor="middle"><textPath startOffset="22.20632615414155" xlink:href="#id58">October</textPath></text><path d="M 80.52162464483688 92.15188598940014 l -38.36288352753046 -15.456950500731363 a62.35974070674195,62.35974070674195 0 0,0 0.4097281823300113,-0.9921892928600136 l 38.09113365831425 16.115014364044686" fill="red" stroke="none" /><path d="M 80.65960295795068 91.81776055985345 l -58.02119112614798 -24.546718320439627 a84.0,84.0 0 0,0 0.574837160629277,-1.3268034216536029 l 57.59006325567602 25.54182088667983" fill="red" stroke="none" /><path d="M 81.43458229118936 90.18545643968196 l -7.728369465488758 -4.085575663254523 a29.74183179289539,29.74183179289539 0 0,0 0.2431634111069855,-0.4505448706593753 l 7.6568979551633 4.218001517246371" fill="red" stroke="none" /><line stroke="#e1ed5e" stroke-width="0.3" x1="26.266209847984243" x2="21.928928074336255" y1="57.711370442889674" y2="55.22380399835377" /><path d="M 25.398753493254645 57.213857153982495 a86.0,86.0 0 0,1 29.58750427330803,-30.492523968695096" fill="none" id="id59" stroke="none" /><text fill="#e1ed5e" style="font-size:6.75px; font-family:Arial;" text-anchor="middle"><textPath startOffset="21.46611528233685" xlink:href="#id59">November</textPath></text><line stroke="#e1ed5e" stroke-width="0.3" x1="56.762969772571076" x2="54.21961505331055" y1="26.818313649435495" y2="22.513508569990535" /><path d="M 56.25429882871897 25.957352633546506 a86.0,86.0 0 0,1 42.265352541879196,-11.944610805530505" fill="none" id="id60" stroke="none" /><text fill="#e1ed5e" style="font-size:6.75px; font-family:Arial;" text-anchor="middle"><textPath startOffset="22.20632615414155" xlink:href="#id60">December</textPath></text></svg>