<?xml version="1.0" encoding="utf-8" ?>
<svg baseProfile="full" height="200mm" version="1.1" viewBox="0,0,200,200" width="200mm" xmlns="http://www.w3.org/2000/svg" xmlns:ev="http://www.w3.org/2001/xml-events" xmlns:xlink="http://www.w3.org/1999/xlink"><defs /><rect fill="#1a1a1a" height="200" width="200" x="0" y="0" /><text alignment-baseline="middle" fill="#e1ed5e" style="dominant-baseline: central; font-size:9.0px; font-family:Arial;" text-anchor="middle" x="100.0" y="100.0">2026</text><line stroke="#e1ed5e" stroke-width="0.3" x1="100.0" x2="100.0" y1="15.0" y2="10.0" /><path d="M 100.0 14.0 a86.0,86.0 0 0,1 42.46469731375804,11.215312516191453" fill="none" id="id97" stroke="none" /><text fill="#e1ed5e" style="font-size:6.75px; font-family:Arial;" text-anchor="middle"><textPath startOffset="22.20632615414155" xlink:href="#id97">January</textPath></text><line stroke="#e1ed5e" stroke-width="0.3" x1="143.23703022742887" x2="145.7803849466894" y1="26.81831364943548" y2="22.513508569990506" /><path d="M 143.74570117128098 25.957352633546492 a86.0,86.0 0 0,1 28.547481713284135,27.462654790039103" fill="none" id="id98" stroke="none" /><text fill="#e1ed5e" style="font-size:6.75px; font-family:Arial;" text-anchor="middle"><textPath startOffset="19.985693538727396" xlink:href="#id98">February</textPath></text><line stroke="#e1ed5e" stroke-width="0.3" x1="172.23445277983987" x2="176.4835382374775" y1="55.19839476539836" y2="52.563006222186495" /><path d="M 173.08426987136738 54.67131705675599 a86.0,86.0 0 0,1 12.851231095245387,41.99856678651699" fill="none" id="id99" stroke="none" /><text fill="#e1ed5e" style="font-size:6.75px; font-family:Arial;" text-anchor="middle"><textPath startOffset="22.20632615414155" xlink:href="#id99">March</textPath></text><path d="M 120.78858239683441 97.02765380044208 l 6.915220089252981 -0.9887364015031422 a27.985547119192983,27.985547119192983 0 0,0 0.06407890828791643,0.47746229619485325 l -6.931214996598733 0.8695557632436246" fill="#ff2e04" stroke="none" /><path d="M 120.87857604477298 97.74499172005257 l 4.246017551379489 -0.4585947199957603 a25.270711201173718,25.270711201173718 0 0,0 0.04298773524572499,0.43288062740779554 l -4.253282412307443 0.3854385618835298" fill="#ff0500" stroke="none" /><path d="M 120.91429891909075 98.10471618934814 l 16.743203020977134 -1.5172931087424153 a37.81181209089297,37.81181209089297 0 0,0 0.05316253665256593,0.6487176029287502 l -16.766840041449196 1.2288615886058962" fill="#ffba11" stroke="none" /><line stroke="#e1ed5e" stroke-width="0.3" x1="184.98032266829074" x2="189.97916517819016" y1="98.17113171792111" y2="98.06355123074" /><path d="M 185.9800911702706 98.14961562048488 a86.0,86.0 0 0,1 -9.607161424134198,41.387399972396054" fill="none" id="id100" stroke="none" /><text fill="#e1ed5e" style="font-size:6.75px; font-family:Arial;" text-anchor="middle"><textPath startOffset="21.466115282336823" xlink:href="#id100">April</textPath></text><path d="M 120.99513854157772 99.54816195383933 l 7.663450799997669 -0.16492573409135242 a28.665225284474715,28.665225284474715 0 0,0 0.006370495351034462,0.49340188546981273 l -7.665154302466419 0.03298759056107696" fill="#ff3805" stroke="none" /><path d="M 120.9904718944345 100.63252640178507 l 30.257315942456557 0.9117732691769813 a51.27105050268361,51.27105050268361 0 0,0 -0.03417549302456271,0.8819176195744426 l -30.23713831658079 -1.43246813576543" fill="#9cff22" stroke="none" /><path d="M 120.95626037817324 101.35467743843564 l 43.16087908368014 2.790052617336635 a64.25096388386697,64.25096388386697 0 0,0 -0.08084436071167227,1.1030570707671359 l -43.10645816430414 -3.532582824600541" fill="#33ff55" stroke="none" /><path d="M 120.70491114924044 103.5080841355445 l 17.926851112974347 3.0373905754239687 a39.18234672242348,39.18234672242348 0 0,0 -0.11839329985891422,0.6640125000371551 l -17.871911370776246 -3.345521826194342" fill="#ffcc13" stroke="none" /><path d="M 120.23288151984713 105.62410040840565 l 60.69864455954138 16.872301225216972 a84.0,84.0 0 0,0 -0.3992294524556024,1.389770097981672 l -60.399222470199675 -17.914628798703227" fill="#4dd2ff" stroke="none" /><path d="M 120.13307415673323 105.97154293290107 l 4.487093651728027 1.3308882775003643 a25.680306939354068,25.680306939354068 0 0,0 -0.12934709276231604,0.42271378311994934 l -4.463519786459578 -1.4079290331723708" fill="#ff0b01" stroke="none" /><path d="M 119.26925614724726 108.34839909993367 l 5.944794423889052 2.575580294248979 a27.478749462236213,27.478749462236213 0 0,0 -0.19177408162506943,0.4323999271855533 l -5.899579257532709 -2.6775285579272197" fill="#ff2703" stroke="none" /><line stroke="#e1ed5e" stroke-width="0.3" x1="174.80103733775053" x2="179.2010983576182" y1="140.37084112569926" y2="142.7455964860345" /><path d="M 175.68104954172406 140.8457921977663 a86.0,86.0 0 0,1 -30.038265399797805,32.042727171017184" fill="none" id="id101" stroke="none" /><text fill="#e1ed5e" style="font-size:6.75px; font-family:Arial;" text-anchor="middle"><textPath startOffset="22.206326154141568" xlink:href="#id101">May</textPath></text><path d="M 118.12598468904814 110.60418214915192 l 27.199723350440422 15.9125601043282 a52.51245022866917,52.51245022866917 0 0,0 -0.4631576212521205,0.7762788139951537 l -26.921784853490074 -16.37840101220946" fill="#8dff24" stroke="none" /><path d="M 115.07121518719521 114.62390073753431 l 2.8211052834649215 2.7373747321036297 a24.93088481697863,24.93088481697863 0 0,0 -0.30149675833011097,0.30541462441147 l -2.773567900079275 -2.7855298504957644" fill="#ff0000" stroke="none" /><path d="M 113.20401910651253 116.32954008644616 l 4.861524119720572 6.012294616799419 a28.731888729529167,28.731888729529167 0 0,0 -0.3872545630939056,0.3076584458023551 l -4.757312063909315 -6.0950869766069005" fill="#ff3905" stroke="none" /><path d="M 112.04921762599082 117.19931262002967 l 6.2815672266913625 8.966444281208124 a31.94784042044151,31.94784042044151 0 0,0 -0.4531163962092987,0.311657589048647 l -6.12629394585918 -9.073242659621865" fill="#ff6809" stroke="none" /><path d="M 111.45004920935366 117.60387380957326 l 3.611476478807367 5.552463141139251 a27.623640184270943,27.623640184270943 0 0,0 -0.4008298027550019,0.25582854472397715 l -3.515364874005435 -5.613806114687037" fill="#ff2904" stroke="none" /><path d="M 111.1453310114006 117.79835938074945 l 3.096157140412943 4.944358981171079 a26.83377020226347,26.83377020226347 0 0,0 -0.3935885412635128,0.2417742286069168 l -3.0105893992171215 -4.996921676606374" fill="#ff1d02" stroke="none" /><line stroke="#e1ed5e" stroke-width="0.3" x1="143.8653032363475" x2="146.44561519142675" y1="172.8068346515853" y2="177.08958963109032" /><path d="M 144.38136562736335 173.6633856474863 a86.0,86.0 0 0,1 -40.68145358897372,12.25698825130547" fill="none" id="id102" stroke="none" /><text fill="#e1ed5e" style="font-size:6.75px; font-family:Arial;" text-anchor="middle"><textPath startOffset="21.466115282336833" xlink:href="#id102">June</textPath></text><path d="M 106.57524785965236 119.94407469862006 l 2.4209219214934965 7.3431524822162135 a28.731930633874434,28.731930633874434 0 0,0 -0.4710376395986045,0.1508113773210834 l -2.294162936803952 -7.383736706197004" fill="#ff3905" stroke="none" /><path d="M 105.88484417918355 120.15858648285463 l 2.453098594831937 8.403111224220975 a29.75385463453643,29.75385463453643 0 0,0 -0.492878031242931,0.13929225485483687 l -2.3080893954844 -8.44409227241433" fill="#ff4806" stroke="none" /><line stroke="#e1ed5e" stroke-width="0.3" x1="102.19456741930631" x2="102.32365962044197" y1="184.97166512339345" y2="189.96999836594603" /><path d="M 102.22038585953345 185.97133177190398 a86.0,86.0 0 0,1 -42.740103519485714,-10.115201625700543" fill="none" id="id103" stroke="none" /><text fill="#e1ed5e" style="font-size:6.75px; font-family:Arial;" text-anchor="middle"><textPath startOffset="22.20632615414155" xlink:href="#id103">July</textPath></text><line stroke="#e1ed5e" stroke-width="0.3" x1="58.666819895761336" x2="56.23545636021788" y1="174.27360380694188" y2="178.64263932499728" /><path d="M 58.180547188652646 175.14741091055294 a86.0,86.0 0 0,1 -31.652253787137756,-30.449443065178592" fill="none" id="id104" stroke="none" /><text fill="#e1ed5e" style="font-size:6.75px; font-family:Arial;" text-anchor="middle"><textPath startOffset="22.20632615414155" xlink:href="#id104">August</textPath></text><line stroke="#e1ed5e" stroke-width="0.3" x1="26.63291911575756" x2="22.317208475507996" y1="142.92168965132927" y2="145.44649492493687" /><path d="M 25.769776987707644 143.4266507060508 a86.0,86.0 0 0,1 -11.730757126820373,-40.83630448921669" fill="none" id="id105" stroke="none" /><text fill="#e1ed5e" style="font-size:6.75px; font-family:Arial;" text-anchor="middle"><textPath startOffset="21.46611528233685" xlink:href="#id105">September</textPath></text><line stroke="#e1ed5e" stroke-width="0.3" x1="15.007084014347285" x2="10.007500721073583" y1="101.09737516637583" y2="101.16192664675087" /><path d="M 14.007167355692545 101.11028546245083 a86.0,86.0 0 0,1 10.666146001902534,-42.60595125391555" fill="none" id="id106" stroke="none" /><text fill="#e1ed5e" style="font-size:6.75px; font-family:Arial;" text-anchor="middle"><textPath startOffset="22.20632615414155" xlink:href="#id106">October</textPath></text><line stroke="#e1ed5e" stroke-width="0.3" x1="26.266209847984243" x2="21.928928074336255" y1="57.711370442889674" y2="55.22380399835377" /><path d="M 25.398753493254645 57.213857153982495 a86.0,86.0 0 0,1 29.58750427330803,-30.492523968695096" fill="none" id="id107" stroke="none" /><text fill="#e1ed5e" style="font-size:6.75px; font-family:Arial;" text-anchor="middle"><textPath startOffset="21.46611528233685" xlink:href="#id107">November</textPath></text><line stroke="#e1ed5e" stroke-width="0.3" x1="56.762969772571076" x2="54.21961505331055" y1="26.818313649435495" y2="22.513508569990535" /><path d="M 56.25429882871897 25.957352633546506 a86.0,86.0 0 0,1 42.265352541879196,-11.944610805530505" fill="none" id="id108" stroke="none" /><text fill="#e1ed5e" style="font-size:6.75px; font-family:Arial;" text-anchor="middle"><textPath startOffset="22.20632615414155" xlink:href="#id108">December</textPath></text></svg>