<?xml version="1.0" encoding="utf-8" ?>
<svg baseProfile="full" height="200mm" version="1.1" viewBox="0,0,200,200" width="200mm" xmlns="http://www.w3.org/2000/svg" xmlns:ev="http://www.w3.org/2001/xml-events" xmlns:xlink="http://www.w3.org/1999/xlink"><defs /><rect fill="#1a1a1a" height="200" width="200" x="0" y="0" /><text alignment-baseline="middle" fill="#e1ed5e" style="dominant-baseline: central; font-size:9.0px; font-family:Arial;" text-anchor="middle" x="100.0" y="100.0">2023</text><line stroke="#e1ed5e" stroke-width="0.3" x1="100.0" x2="100.0" y1="15.0" y2="10.0" /><path d="M 100.0 14.0 a86.0,86.0 0 0,1 42.46469731375804,11.215312516191453" fill="none" id="id61" stroke="none" /><text fill="#e1ed5e" style="font-size:6.75px; font-family:Arial;" text-anchor="middle"><textPath startOffset="22.20632615414155" xlink:href="#id61">January</textPath></text><line stroke="#e1ed5e" stroke-width="0.3" x1="143.23703022742887" x2="145.7803849466894" y1="26.81831364943548" y2="22.513508569990506" /><path d="M 143.74570117128098 25.957352633546492 a86.0,86.0 0 0,1 28.547481713284135,27.462654790039103" fill="none" id="id62" stroke="none" /><text fill="#e1ed5e" style="font-size:6.75px; font-family:Arial;" text-anchor="middle"><textPath startOffset="19.985693538727396" xlink:href="#id62">February</textPath></text><line stroke="#e1ed5e" stroke-width="0.3" x1="172.23445277983987" x2="176.4835382374775" y1="55.19839476539836" y2="52.563006222186495" /><path d="M 173.08426987136738 54.67131705675599 a86.0,86.0 0 0,1 12.851231095245387,41.99856678651699" fill="none" id="id63" stroke="none" /><text fill="#e1ed5e" style="font-size:6.75px; font-family:Arial;" text-anchor="middle"><textPath startOffset="22.20632615414155" xlink:href="#id63">March</textPath></text><line stroke="#e1ed5e" stroke-width="0.3" x1="184.98032266829074" x2="189.97916517819016" y1="98.17113171792111" y2="98.06355123074" /><path d="M 185.9800911702706 98.14961562048488 a86.0,86.0 0 0,1 -9.607161424134198,41.387399972396054" fill="none" id="id64" stroke="none" /><text fill="#e1ed5e" style="font-size:6.75px; font-family:Arial;" text-anchor="middle"><textPath startOffset="21.466115282336823" xlink:href="#id64">April</textPath></text><path d="M 120.41448212921028 104.9243191809786 l 31.195119483130934 7.524791677370039 a53.089842152223696,53.089842152223696 0 0,0 -0.22193749842030455,0.8865299835034042 l -31.060970670415568 -8.06064950027084" fill="red" stroke="none" /><path d="M 119.79798401119884 107.00284435728193 l 31.05131961270162 10.98331821123629 a53.93657129422282,53.93657129422282 0 0,0 -0.3171360952094494,0.8726223294832416 l -30.85765925648694 -11.516188337725662" fill="red" stroke="none" /><path d="M 119.26925614724726 108.34839909993367 l 34.55537308093187 14.971104401865315 a58.65909950827213,58.65909950827213 0 0,0 -0.40938161878917556,0.9230474767785471 l -34.29255037741142 -15.56370021513655" fill="red" stroke="none" /><line stroke="#e1ed5e" stroke-width="0.3" x1="174.80103733775053" x2="179.2010983576182" y1="140.37084112569926" y2="142.7455964860345" /><path d="M 175.68104954172406 140.8457921977663 a86.0,86.0 0 0,1 -30.038265399797805,32.042727171017184" fill="none" id="id65" stroke="none" /><text fill="#e1ed5e" style="font-size:6.75px; font-family:Arial;" text-anchor="middle"><textPath startOffset="22.206326154141568" xlink:href="#id65">May</textPath></text><path d="M 116.93607887273984 112.41649034213515 l 27.721121527075464 20.323419623895745 a55.3729830525056,55.3729830525056 0 0,0 -0.5701801768851403,0.763849524450469 l -27.36718008349523 -20.79758202785553" fill="red" stroke="none" /><path d="M 116.71984013943494 112.70617746262583 l 25.194279365907974 19.146294581559182 a52.64383524434513,52.64383524434513 0 0,0 -0.5544979748354439,0.7167633795540287 l -24.86097457385446 -19.577135955226463" fill="red" stroke="none" /><path d="M 114.81725581225074 114.88116024355365 l 44.45176743675221 44.643480730660954 a84.0,84.0 0 0,0 -1.033400190496823,1.011399588309712 l -43.67671729387959 -45.40203042189324" fill="red" stroke="none" /><line stroke="#e1ed5e" stroke-width="0.3" x1="143.8653032363475" x2="146.44561519142675" y1="172.8068346515853" y2="177.08958963109032" /><path d="M 144.38136562736335 173.6633856474863 a86.0,86.0 0 0,1 -40.68145358897372,12.25698825130547" fill="none" id="id66" stroke="none" /><text fill="#e1ed5e" style="font-size:6.75px; font-family:Arial;" text-anchor="middle"><textPath startOffset="21.466115282336833" xlink:href="#id66">June</textPath></text><path d="M 110.5260780823613 118.17145234162733 l 18.92000181828801 32.662109159216705 a58.74625602006919,58.74625602006919 0 0,0 -0.8793789532700801,0.4993343200476476 l -18.354974098096733 -32.98294664505898" fill="red" stroke="none" /><path d="M 110.21172684928248 118.3499491758327 l 3.486877273589772 6.265739546023416 a28.170620975876396,28.170620975876396 0 0,0 -0.4257482130113197,0.2321518716956051 l -3.378506248709803 -6.324832069478791" fill="red" stroke="none" /><path d="M 109.57404056367764 118.69057910512821 l 15.31172174029237 29.89176247157187 a54.58520933847241,54.58520933847241 0 0,0 -0.8399522426688499,0.4211694915966862 l -14.794915589940759 -30.15089980407786" fill="red" stroke="none" /><path d="M 108.92500713936063 119.00905698771935 l 13.75882886626381 29.30444288942308 a53.37368908281219,53.37368908281219 0 0,0 -0.834998335602995,0.38330678179319705 l -13.252362534893397 -29.53693674155035" fill="red" stroke="none" /><path d="M 108.59647513512805 119.15986991738527 l 13.528026114323406 30.151337206836068 a54.04709708749247,54.04709708749247 0 0,0 -0.8520893543063756,0.37353093233005735 l -13.007016085359275 -30.37973269246058" fill="red" stroke="none" /><line stroke="#e1ed5e" stroke-width="0.3" x1="102.19456741930631" x2="102.32365962044197" y1="184.97166512339345" y2="189.96999836594603" /><path d="M 102.22038585953345 185.97133177190398 a86.0,86.0 0 0,1 -42.740103519485714,-10.115201625700543" fill="none" id="id67" stroke="none" /><text fill="#e1ed5e" style="font-size:6.75px; font-family:Arial;" text-anchor="middle"><textPath startOffset="22.20632615414155" xlink:href="#id67">July</textPath></text><path d="M 96.58105272829116 120.7198165907248 l -5.17897377937749 31.386090018065836 a52.81050794988366,52.81050794988366 0 0,0 -0.8956436534968832,-0.1557191295849762 l 5.718466404346422 -31.292292309959855" fill="red" stroke="none" /><path d="M 94.81253420990036 120.34920634021253 l -7.804125157212301 30.61374465968407 a52.59281139053264,52.59281139053264 0 0,0 -0.8753185819239965,-0.23117959313291858 l 8.329934181947786 -30.47487371724757" fill="red" stroke="none" /><path d="M 93.08242187328487 119.8279376855182 l -11.19683012479498 32.093609341741 a54.990715871011034,54.990715871011034 0 0,0 -0.8910602360892143,-0.31950249825690835 l 11.747609921513922 -31.89611930244413" fill="red" stroke="none" /><path d="M 92.06813273071674 119.44442032107085 l -11.984410563506314 29.378948031508784 a52.72930323837534,52.72930323837534 0 0,0 -0.8374632167052887,-0.3500596925030898 l 12.488345239709066 -29.168303295985723" fill="red" stroke="none" /><path d="M 91.7346041902142 119.30500536409082 l -13.772006279643472 32.16647589798848 a55.99071775003212,55.99071775003212 0 0,0 -0.882731859909969,-0.38696370628643595 l 14.323658814211186 -31.924647638407585" fill="red" stroke="none" /><line stroke="#e1ed5e" stroke-width="0.3" x1="58.666819895761336" x2="56.23545636021788" y1="174.27360380694188" y2="178.64263932499728" /><path d="M 58.180547188652646 175.14741091055294 a86.0,86.0 0 0,1 -31.652253787137756,-30.449443065178592" fill="none" id="id68" stroke="none" /><text fill="#e1ed5e" style="font-size:6.75px; font-family:Arial;" text-anchor="middle"><textPath startOffset="22.20632615414155" xlink:href="#id68">August</textPath></text><path d="M 83.28015986056508 112.70617746262583 l -25.61578816163249 19.46661855091951 a53.17324728635011,53.17324728635011 0 0,0 -0.5475293161385406,-0.7335049949296317 l 25.947078744466115 -19.022800676480568" fill="red" stroke="none" /><line stroke="#e1ed5e" stroke-width="0.3" x1="26.63291911575756" x2="22.317208475507996" y1="142.92168965132927" y2="145.44649492493687" /><path d="M 25.769776987707644 143.4266507060508 a86.0,86.0 0 0,1 -11.730757126820373,-40.83630448921669" fill="none" id="id69" stroke="none" /><text fill="#e1ed5e" style="font-size:6.75px; font-family:Arial;" text-anchor="middle"><textPath startOffset="21.46611528233685" xlink:href="#id69">September</textPath></text><path d="M 79.67330655649465 105.27499134158121 l -21.875305552534016 5.676872517646477 a43.59990872986737,43.59990872986737 0 0,0 -0.18226565163097433,-0.7280606760180528 l 21.96978251846005 -5.299484002231032" fill="red" stroke="none" /><path d="M 79.18660465613746 102.79330883721812 l -19.438997547996877 2.6088546698120947 a40.613279898049406,40.613279898049406 0 0,0 -0.08702553809274025,-0.6936791637898289 l 19.481024595336464 -2.273857751734857" fill="red" stroke="none" /><line stroke="#e1ed5e" stroke-width="0.3" x1="15.007084014347285" x2="10.007500721073583" y1="101.09737516637583" y2="101.16192664675087" /><path d="M 14.007167355692545 101.11028546245083 a86.0,86.0 0 0,1 10.666146001902534,-42.60595125391555" fill="none" id="id70" stroke="none" /><text fill="#e1ed5e" style="font-size:6.75px; font-family:Arial;" text-anchor="middle"><textPath startOffset="22.20632615414155" xlink:href="#id70">October</textPath></text><path d="M 79.00175016825051 100.2711162175752 l -19.94826193226592 0.2575594330770363 a40.94992458581878,40.94992458581878 0 0,0 -0.0030336146987050222,-0.7049052193356082 l 19.949739844254125 0.08585526446224725" fill="red" stroke="none" /><line stroke="#e1ed5e" stroke-width="0.3" x1="26.266209847984243" x2="21.928928074336255" y1="57.711370442889674" y2="55.22380399835377" /><path d="M 25.398753493254645 57.213857153982495 a86.0,86.0 0 0,1 29.58750427330803,-30.492523968695096" fill="none" id="id71" stroke="none" /><text fill="#e1ed5e" style="font-size:6.75px; font-family:Arial;" text-anchor="middle"><textPath startOffset="21.46611528233685" xlink:href="#id71">November</textPath></text><line stroke="#e1ed5e" stroke-width="0.3" x1="56.762969772571076" x2="54.21961505331055" y1="26.818313649435495" y2="22.513508569990535" /><path d="M 56.25429882871897 25.957352633546506 a86.0,86.0 0 0,1 42.265352541879196,-11.944610805530505" fill="none" id="id72" stroke="none" /><text fill="#e1ed5e" style="font-size:6.75px; font-family:Arial;" text-anchor="middle"><textPath startOffset="22.20632615414155" xlink:href="#id72">December</textPath></text></svg>