<?xml version="1.0" encoding="utf-8" ?>
<svg baseProfile="full" height="200mm" version="1.1" viewBox="0,0,200,200" width="200mm" xmlns="http://www.w3.org/2000/svg" xmlns:ev="http://www.w3.org/2001/xml-events" xmlns:xlink="http://www.w3.org/1999/xlink"><defs /><rect fill="#1a1a1a" height="200" width="200" x="0" y="0" /><text alignment-baseline="middle" fill="#e1ed5e" style="dominant-baseline: central; font-size:9.0px; font-family:Arial;" text-anchor="middle" x="100.0" y="100.0">2019</text><line stroke="#e1ed5e" stroke-width="0.3" x1="100.0" x2="100.0" y1="15.0" y2="10.0" /><path d="M 100.0 14.0 a86.0,86.0 0 0,1 42.46469731375804,11.215312516191453" fill="none" id="id13" stroke="none" /><text fill="#e1ed5e" style="font-size:6.75px; font-family:Arial;" text-anchor="middle"><textPath startOffset="22.20632615414155" xlink:href="#id13">January</textPath></text><line stroke="#e1ed5e" stroke-width="0.3" x1="143.23703022742887" x2="145.7803849466894" y1="26.81831364943548" y2="22.513508569990506" /><path d="M 143.74570117128098 25.957352633546492 a86.0,86.0 0 0,1 28.547481713284135,27.462654790039103" fill="none" id="id14" stroke="none" /><text fill="#e1ed5e" style="font-size:6.75px; font-family:Arial;" text-anchor="middle"><textPath startOffset="19.985693538727396" xlink:href="#id14">February</textPath></text><line stroke="#e1ed5e" stroke-width="0.3" x1="172.23445277983987" x2="176.4835382374775" y1="55.19839476539836" y2="52.563006222186495" /><path d="M 173.08426987136738 54.67131705675599 a86.0,86.0 0 0,1 12.851231095245387,41.99856678651699" fill="none" id="id15" stroke="none" /><text fill="#e1ed5e" style="font-size:6.75px; font-family:Arial;" text-anchor="middle"><textPath startOffset="22.20632615414155" xlink:href="#id15">March</textPath></text><line stroke="#e1ed5e" stroke-width="0.3" x1="184.98032266829074" x2="189.97916517819016" y1="98.17113171792111" y2="98.06355123074" /><path d="M 185.9800911702706 98.14961562048488 a86.0,86.0 0 0,1 -9.607161424134198,41.387399972396054" fill="none" id="id16" stroke="none" /><text fill="#e1ed5e" style="font-size:6.75px; font-family:Arial;" text-anchor="middle"><textPath startOffset="21.466115282336823" xlink:href="#id16">April</textPath></text><path d="M 119.9155931802556 106.66101706037122 l 34.311228390304315 11.47581573903074 a57.17947955026178,57.17947955026178 0 0,0 -0.3202300512859436,0.9307384254012673 l -34.10860750807514 -12.064726867521307" fill="red" stroke="none" /><line stroke="#e1ed5e" stroke-width="0.3" x1="174.80103733775053" x2="179.2010983576182" y1="140.37084112569926" y2="142.7455964860345" /><path d="M 175.68104954172406 140.8457921977663 a86.0,86.0 0 0,1 -30.038265399797805,32.042727171017184" fill="none" id="id17" stroke="none" /><text fill="#e1ed5e" style="font-size:6.75px; font-family:Arial;" text-anchor="middle"><textPath startOffset="22.206326154141568" xlink:href="#id17">May</textPath></text><path d="M 114.55890576462653 115.13401014063108 l 28.66739401893999 29.799810425466674 a62.35031053366962,62.35031053366962 0 0,0 -0.7798662996095413,0.7374122630809264 l -28.15019188493964 -30.288857325293524" fill="red" stroke="none" /><path d="M 111.7513745106137 117.40417183066458 l 31.53069735628352 46.69799896461482 a77.34614434965991,77.34614434965991 0 0,0 -1.1098262022601664,0.7355322898849345 l -30.72219645528339 -47.23382927559107" fill="red" stroke="none" /><line stroke="#e1ed5e" stroke-width="0.3" x1="143.8653032363475" x2="146.44561519142675" y1="172.8068346515853" y2="177.08958963109032" /><path d="M 144.38136562736335 173.6633856474863 a86.0,86.0 0 0,1 -40.68145358897372,12.25698825130547" fill="none" id="id18" stroke="none" /><text fill="#e1ed5e" style="font-size:6.75px; font-family:Arial;" text-anchor="middle"><textPath startOffset="21.466115282336833" xlink:href="#id18">June</textPath></text><path d="M 109.2508944713604 118.85261126421891 l 20.962714088884333 42.72039865811857 a68.58642499159701,68.58642499159701 0 0,0 -1.0643546215197006,0.5109548990532882 l -20.224246799364398 -43.07490783367142" fill="red" stroke="none" /><path d="M 108.2653958097858 119.30500536409082 l 24.796187429357403 57.91501609227246 a84.0,84.0 0 0,0 -1.3341141620101555,0.5576598279201073 l -23.79560180784979 -58.33326096321254" fill="red" stroke="none" /><path d="M 106.91757812671514 119.82793768551818 l 18.817156548780865 53.93584295448199 a78.12408017458024,78.12408017458024 0 0,0 -1.2735351061998832,0.43205225346701487 l -17.885951709643756 -54.251758194847135" fill="red" stroke="none" /><path d="M 105.53697534728816 120.25689768951611 l 15.546534715166723 56.87664174013044 a79.9630996241296,79.9630996241296 0 0,0 -1.3308508352880786,0.35148980151459497 l -14.565193437067148 -57.13582289094862" fill="red" stroke="none" /><path d="M 101.26447882468166 120.96189622390904 l 3.398299597584319 56.335307568513805 a77.4377118511549,77.4377118511549 0 0,0 -1.3312351396678959,0.06880965081121328 l -2.4280763895029436 -56.385457026087224" fill="red" stroke="none" /><line stroke="#e1ed5e" stroke-width="0.3" x1="102.19456741930631" x2="102.32365962044197" y1="184.97166512339345" y2="189.96999836594603" /><path d="M 102.22038585953345 185.97133177190398 a86.0,86.0 0 0,1 -42.740103519485714,-10.115201625700543" fill="none" id="id19" stroke="none" /><text fill="#e1ed5e" style="font-size:6.75px; font-family:Arial;" text-anchor="middle"><textPath startOffset="22.20632615414155" xlink:href="#id19">July</textPath></text><path d="M 100.54218724476979 120.99299961872073 l 1.5326951991735625 59.34457153363527 a80.36436073170773,80.36436073170773 0 0,0 -1.3831866411640925,0.02381281240946955 l -0.510948868116802 -59.3621618233239" fill="red" stroke="none" /><path d="M 98.73552117531835 120.96189622390904 l -1.3880966189981137 23.011170063305013 a44.0529989351932,44.0529989351932 0 0,0 -0.7565310435903243,-0.05217481012098009 l 1.783990423367368 -22.98386690866775" fill="red" stroke="none" /><path d="M 95.16358092515715 120.4354850818985 l -14.377658411301194 60.75040632956831 a83.42859065043606,83.42859065043606 0 0,0 -1.3946348907780417,-0.342767324854929 l 15.421246586822445 -60.493917746399354" fill="red" stroke="none" /><line stroke="#e1ed5e" stroke-width="0.3" x1="58.666819895761336" x2="56.23545636021788" y1="174.27360380694188" y2="178.64263932499728" /><path d="M 58.180547188652646 175.14741091055294 a86.0,86.0 0 0,1 -31.652253787137756,-30.449443065178592" fill="none" id="id20" stroke="none" /><text fill="#e1ed5e" style="font-size:6.75px; font-family:Arial;" text-anchor="middle"><textPath startOffset="22.20632615414155" xlink:href="#id20">August</textPath></text><path d="M 88.54995079064634 117.60387380957326 l -15.768659199372951 24.243519099041254 a49.92056070084996,49.92056070084996 0 0,0 -0.716301332964459,-0.4747254647709856 l 16.18363523107737 -23.96849561317895" fill="red" stroke="none" /><path d="M 88.24862548938628 117.40417183066458 l -31.782598377089762 47.071072654545446 a77.79629777061956,77.79629777061956 0 0,0 -1.1033853187050775,-0.7589184834098412 l 32.58814058041773 -46.517013381770504" fill="red" stroke="none" /><path d="M 86.24171649860922 115.8653595955263 l -38.29442205151011 44.15919880475235 a79.45081350449132,79.45081350449132 0 0,0 -1.0255119318183297,-0.9048950456019067 l 39.048876336235026 -43.493480617378154" fill="red" stroke="none" /><path d="M 82.24976979558568 111.22182372390057 l -47.98832377512898 30.338564852868206 a77.77418194988194,77.77418194988194 0 0,0 -0.7056538943976531,-1.1377387628604372 l 48.50344230919459 -29.508029758642504" fill="red" stroke="none" /><line stroke="#e1ed5e" stroke-width="0.3" x1="26.63291911575756" x2="22.317208475507996" y1="142.92168965132927" y2="145.44649492493687" /><path d="M 25.769776987707644 143.4266507060508 a86.0,86.0 0 0,1 -11.730757126820373,-40.83630448921669" fill="none" id="id21" stroke="none" /><text fill="#e1ed5e" style="font-size:6.75px; font-family:Arial;" text-anchor="middle"><textPath startOffset="21.46611528233685" xlink:href="#id21">September</textPath></text><line stroke="#e1ed5e" stroke-width="0.3" x1="15.007084014347285" x2="10.007500721073583" y1="101.09737516637583" y2="101.16192664675087" /><path d="M 14.007167355692545 101.11028546245083 a86.0,86.0 0 0,1 10.666146001902534,-42.60595125391555" fill="none" id="id22" stroke="none" /><text fill="#e1ed5e" style="font-size:6.75px; font-family:Arial;" text-anchor="middle"><textPath startOffset="22.20632615414155" xlink:href="#id22">October</textPath></text><line stroke="#e1ed5e" stroke-width="0.3" x1="26.266209847984243" x2="21.928928074336255" y1="57.711370442889674" y2="55.22380399835377" /><path d="M 25.398753493254645 57.213857153982495 a86.0,86.0 0 0,1 29.58750427330803,-30.492523968695096" fill="none" id="id23" stroke="none" /><text fill="#e1ed5e" style="font-size:6.75px; font-family:Arial;" text-anchor="middle"><textPath startOffset="21.46611528233685" xlink:href="#id23">November</textPath></text><line stroke="#e1ed5e" stroke-width="0.3" x1="56.762969772571076" x2="54.21961505331055" y1="26.818313649435495" y2="22.513508569990535" /><path d="M 56.25429882871897 25.957352633546506 a86.0,86.0 0 0,1 42.265352541879196,-11.944610805530505" fill="none" id="id24" stroke="none" /><text fill="#e1ed5e" style="font-size:6.75px; font-family:Arial;" text-anchor="middle"><textPath startOffset="22.20632615414155" xlink:href="#id24">December</textPath></text></svg>