<?xml version="1.0" encoding="utf-8" ?>
<svg baseProfile="full" height="200mm" version="1.1" viewBox="0,0,200,200" width="200mm" xmlns="http://www.w3.org/2000/svg" xmlns:ev="http://www.w3.org/2001/xml-events" xmlns:xlink="http://www.w3.org/1999/xlink"><defs /><rect fill="#1a1a1a" height="200" width="200" x="0" y="0" /><text alignment-baseline="middle" fill="#e1ed5e" style="dominant-baseline: central; font-size:9.0px; font-family:Arial;" text-anchor="middle" x="100.0" y="100.0">2025</text><line stroke="#e1ed5e" stroke-width="0.3" x1="100.0" x2="100.0" y1="15.0" y2="10.0" /><path d="M 100.0 14.0 a86.0,86.0 0 0,1 42.46469731375804,11.215312516191453" fill="none" id="id85" stroke="none" /><text fill="#e1ed5e" style="font-size:6.75px; font-family:Arial;" text-anchor="middle"><textPath startOffset="22.20632615414155" xlink:href="#id85">January</textPath></text><line stroke="#e1ed5e" stroke-width="0.3" x1="143.23703022742887" x2="145.7803849466894" y1="26.81831364943548" y2="22.513508569990506" /><path d="M 143.74570117128098 25.957352633546492 a86.0,86.0 0 0,1 28.547481713284135,27.462654790039103" fill="none" id="id86" stroke="none" /><text fill="#e1ed5e" style="font-size:6.75px; font-family:Arial;" text-anchor="middle"><textPath startOffset="19.985693538727396" xlink:href="#id86">February</textPath></text><line stroke="#e1ed5e" stroke-width="0.3" x1="172.23445277983987" x2="176.4835382374775" y1="55.19839476539836" y2="52.563006222186495" /><path d="M 173.08426987136738 54.67131705675599 a86.0,86.0 0 0,1 12.851231095245387,41.99856678651699" fill="none" id="id87" stroke="none" /><text fill="#e1ed5e" style="font-size:6.75px; font-family:Arial;" text-anchor="middle"><textPath startOffset="22.20632615414155" xlink:href="#id87">March</textPath></text><path d="M 120.28053869075195 94.5502522615342 l 4.064970096798456 -1.0923310238332282 a25.209176754841046,25.209176754841046 0 0,0 0.109004081898546,0.4200371931185578 l -4.083170510567305 1.02219740516582" fill="#ff2503" stroke="none" /><path d="M 120.67395015179393 96.31383870115 l 7.313207518166715 -1.303943480853646 a28.428544460729228,28.428544460729228 0 0,0 0.08174985141300063,0.4824922506332839 l -7.334569231099939 1.1778654419045242" fill="#ff5307" stroke="none" /><path d="M 120.73433829027371 96.67025291283417 l 1.645359376378475 -0.26422982562251285 a22.66644078148162,22.66644078148162 0 0,0 0.058548610909642265,0.3857621930578018 l -1.6496638807274173 0.2358685201726289" fill="#ff0000" stroke="none" /><line stroke="#e1ed5e" stroke-width="0.3" x1="184.98032266829074" x2="189.97916517819016" y1="98.17113171792111" y2="98.06355123074" /><path d="M 185.9800911702706 98.14961562048488 a86.0,86.0 0 0,1 -9.607161424134198,41.387399972396054" fill="none" id="id88" stroke="none" /><text fill="#e1ed5e" style="font-size:6.75px; font-family:Arial;" text-anchor="middle"><textPath startOffset="21.466115282336823" xlink:href="#id88">April</textPath></text><path d="M 120.99824983174949 100.27111621757518 l 11.294082018955706 0.14582209576978195 a32.29502336139741,32.29502336139741 0 0,0 -0.01196136510910328,0.555797635338342 l -11.289898591161595 -0.34020954689823885" fill="#ff880c" stroke="none" /><path d="M 120.9904718944345 100.63252640178507 l 9.881589248830064 0.29777158526568254 a30.886074751871217,30.886074751871217 0 0,0 -0.020587579577357167,0.531273950038196 l -9.874999536401504 -0.46782278231788477" fill="#ff750a" stroke="none" /><path d="M 120.95626037817324 101.35467743843564 l 7.706498711261791 0.4981718944642037 a28.722583610626284,28.722583610626284 0 0,0 -0.036140452525906655,0.4931077609927793 l -7.696781700071546 -0.6307527919537532" fill="#ff5708" stroke="none" /><path d="M 119.79798401119884 107.00284435728193 l 7.446003036143014 2.6337631304512166 a28.89808011111404,28.89808011111404 0 0,0 -0.1699148474880936,0.4675326847640144 l -7.399563927649694 -2.761543612221362" fill="#ff5a08" stroke="none" /><path d="M 119.67450827220406 107.3425965602758 l 8.894629962220264 3.3195075811776875 a30.493870272250543,30.493870272250543 0 0,0 -0.18776342207311927,0.4901910457123413 l -8.836172260553639 -3.4721221937231728" fill="#ff700a" stroke="none" /><path d="M 119.26925614724726 108.34839909993367 l 14.347327985997945 6.215975288795427 a36.63598954747397,36.63598954747397 0 0,0 -0.2556824232321052,0.5764963661999657 l -14.238204478034566 -6.462019991488081" fill="#ffc112" stroke="none" /><path d="M 119.12269723197855 108.67885076344098 l 15.582443464032941 7.07210388333413 a38.112194413530155,38.112194413530155 0 0,0 -0.27626873322259365,0.5950582733411617 l -15.458400113970516 -7.339282223954122" fill="#ffd413" stroke="none" /><path d="M 118.97047184881838 109.00673069616215 l 14.190766780713036 6.737439942691115 a36.70894518438327,36.70894518438327 0 0,0 -0.2759232119268507,0.5684835423250837 l -14.07269031217147 -6.980712440981474" fill="#ffc212" stroke="none" /><line stroke="#e1ed5e" stroke-width="0.3" x1="174.80103733775053" x2="179.2010983576182" y1="140.37084112569926" y2="142.7455964860345" /><path d="M 175.68104954172406 140.8457921977663 a86.0,86.0 0 0,1 -30.038265399797805,32.042727171017184" fill="none" id="id89" stroke="none" /><text fill="#e1ed5e" style="font-size:6.75px; font-family:Arial;" text-anchor="middle"><textPath startOffset="22.206326154141568" xlink:href="#id89">May</textPath></text><path d="M 118.48025628344425 109.97397251340804 l 55.44076885033275 29.921917540224147 a84.0,84.0 0 0,0 -0.6976943621939617,1.2665179264087798 l -54.91749807868728 -30.871805985030733" fill="#4dd2ff" stroke="none" /><path d="M 118.30583269289576 110.29060199501025 l 13.857247065494326 7.78983489523897 a36.89669223232411,36.89669223232411 0 0,0 -0.31599030697921404,0.5509557351205001 l -13.721104762362732 -8.027210476217785" fill="#ffc512" stroke="none" /><path d="M 118.12598468904814 110.60418214915192 l 13.633345908690185 7.975869217493963 a36.79501853245406,36.79501853245406 0 0,0 -0.3245305291070782,0.5439318337446206 l -13.49403450388488 -8.209363145124687" fill="#ffc412" stroke="none" /><path d="M 117.94076556474637 110.91462005526583 l 3.198752155054705 1.946024226078138 a24.74419893140711,24.74419893140711 0 0,0 -0.22450689807253624,0.36197660424551154 l -3.1647806173142055 -2.000797161688923" fill="#ff1e03" stroke="none" /><path d="M 117.55443506779139 111.5257021239791 l 6.623521655786908 4.348800592073371 a28.92357909749728,28.92357909749728 0 0,0 -0.27683569423830157,0.41383180132602176 l -6.547682856137885 -4.4621693076052" fill="#ff5a08" stroke="none" /><path d="M 117.35343817320211 111.8261652097733 l 14.426244469387498 9.83131692686775 a38.45770093703778,38.45770093703778 0 0,0 -0.377506456370992,0.543826206164372 l -14.254877105854371 -10.078184395219141" fill="#ffd914" stroke="none" /><path d="M 116.93607887273984 112.41649034213515 l 1.6061913114478226 1.1775605827104263 a22.99160725418537,22.99160725418537 0 0,0 -0.2367464775851894,0.31716059528179547 l -1.585683567167541 -1.2050340575015368" fill="#ff0500" stroke="none" /><path d="M 116.71984013943494 112.70617746262583 l 46.21960307845428 35.12440753436621 a79.05149191338757,79.05149191338757 0 0,0 -0.8326500523801105,1.0763124350578932 l -45.6081462088561 -35.91479796353736" fill="#47fffd" stroke="none" /><path d="M 116.498646956653 112.99209946851258 l 6.357645655737965 5.0064205241749695 a29.092212599085876,29.092212599085876 0 0,0 -0.3132013413021628,0.39076683018220354 l -6.2705264023809475 -5.115115187935423" fill="#ff5c08" stroke="none" /><path d="M 116.27256486870786 113.27417163493432 l 5.569432334141621 4.54320516212631 a28.187439715903942,28.187439715903942 0 0,0 -0.30993298015056303,0.37333424036966195 l -5.490403354097515 -4.638400659609743" fill="#ff5007" stroke="none" /><path d="M 116.0416608686014 113.55231037782055 l 7.296609479132932 6.164319092451833 a30.551928588747863,30.551928588747863 0 0,0 -0.3428471818570048,0.398808728140829 l -7.189419787705148 -6.2890049197541895" fill="#ff700a" stroke="none" /><path d="M 115.80600337817218 113.82643327865902 l 3.0574286616139514 2.6745112209987134 a25.062127557340673,25.062127557340673 0 0,0 -0.28683145559006373,0.32225818103482023 l -3.0109383563755494 -2.7267435717744" fill="#ff2303" stroke="none" /><path d="M 115.56566222782051 114.09645910891815 l 15.16751929713809 13.735895873013002 a41.462856033880314,41.462856033880314 0 0,0 -0.4836416914407255,0.5248975356647612 l -14.928831197701644 -13.994944663479098" fill="#fffe18" stroke="none" /><path d="M 115.32070863581623 114.36230785411682 l 4.315688577278337 4.045716776080746 a26.915487480192304,26.915487480192304 0 0,0 -0.3197732282261659,0.3352809513586159 l -4.245408797673206 -4.119404844021869" fill="#ff3e05" stroke="none" /><path d="M 115.07121518719521 114.62390073753431 l 16.08394930743984 15.60657685648156 a43.41112818448818,43.41112818448818 0 0,0 -0.5249839513984114,0.5318059710706416 l -15.812924730985893 -15.881123321532865" fill="#e8ff1a" stroke="none" /><path d="M 114.81725581225074 114.88116024355365 l 11.099807607377315 11.147679284947648 a36.73138526515838,36.73138526515838 0 0,0 -0.45188357774079607,0.44226318970507866 l -10.906274077260724 -11.337092577575298" fill="#ffc312" stroke="none" /><path d="M 114.29624159901734 115.38237550388516 l 5.553688956587983 5.975621520546248 a29.1579111041579,29.1579111041579 0 0,0 -0.37058379096689875,0.33851950659138524 l -5.450005616154221 -6.070333793724216" fill="#ff5d08" stroke="none" /><path d="M 114.0293411484842 115.62618273729858 l 5.9252952818986895 6.599721673843952 a29.869354562193152,29.869354562193152 0 0,0 -0.385538903229855,0.34019325626070995 l -5.810814025762247 -6.700738071876951" fill="#ff6709" stroke="none" /><path d="M 113.75828350139079 115.86535959552629 l 5.493794247457997 6.335166830291289 a29.38547041024089,29.38547041024089 0 0,0 -0.3849979712800432,0.328103623477466 l -5.383930799600906 -6.428794843991702" fill="#ff6008" stroke="none" /><path d="M 113.48314897796784 116.09983520530334 l 5.06253400300888 6.04502429683693 a28.884895007605994,28.884895007605994 0 0,0 -0.38393509668919784,0.31595244640690556 l -4.9577287777749905 -6.131271862101014" fill="#ff5908" stroke="none" /><path d="M 112.92097659922987 116.55440617244103 l 7.721102328348507 9.89230675102992 a33.548830783037154,33.548830783037154 0 0,0 -0.45829503544221367,0.3514010904742378 l -7.549678564412799 -10.02374718333153" fill="#ff990e" stroke="none" /><path d="M 112.63410532772338 116.77436683061366 l 9.705056805447683 12.88545399485429 a37.131430570487936,37.131430570487936 0 0,0 -0.5138548473163513,0.3801375315102337 l -9.481816987712767 -13.050601475104292" fill="#ffc812" stroke="none" /><path d="M 112.34349029814194 116.9893568818739 l 10.031679034704798 13.807421655337393 a38.06691175999969,38.06691175999969 0 0,0 -0.5334310401978966,0.3805888837086526 l -9.792520666658016 -13.978054800890265" fill="#ffd413" stroke="none" /><path d="M 112.04921762599082 117.19931262002967 l 4.445650946667435 6.3458178617615015 a28.748110522847256,28.748110522847256 0 0,0 -0.4077346094919285,0.28044358233121525 l -4.335759452552622 -6.421402233457811" fill="#ff5708" stroke="none" /><path d="M 111.1453310114006 117.79835938074945 l 10.300936894807425 16.44991760448074 a40.40899508230682,40.40899508230682 0 0,0 -0.5927052854849308,0.36408799587846674 l -10.016252409390185 -16.624794067187583" fill="#fff116" stroke="none" /><line stroke="#e1ed5e" stroke-width="0.3" x1="143.8653032363475" x2="146.44561519142675" y1="172.8068346515853" y2="177.08958963109032" /><path d="M 144.38136562736335 173.6633856474863 a86.0,86.0 0 0,1 -40.68145358897372,12.25698825130547" fill="none" id="id90" stroke="none" /><text fill="#e1ed5e" style="font-size:6.75px; font-family:Arial;" text-anchor="middle"><textPath startOffset="21.466115282336833" xlink:href="#id90">June</textPath></text><path d="M 110.5260780823613 118.17145234162733 l 5.009381572609177 8.647830445057249 a30.993941922307506,30.993941922307506 0 0,0 -0.4639516124404812,0.26344383393700177 l -4.859781193247497 -8.73277744478888" fill="#ff760a" stroke="none" /><path d="M 110.21172684928248 118.3499491758327 l 4.3237484245493425 7.769554063732311 a29.891612384042176,29.891612384042176 0 0,0 -0.4517578993885516,0.24633442652532914 l -4.189367713292142 -7.842829142017411" fill="#ff6709" stroke="none" /><path d="M 109.89434966115114 118.52300852407294 l 7.585219999372346 14.200134371337356 a37.09904899684807,37.09904899684807 0 0,0 -0.5658649000621773,0.29603377128572633 l -7.339664196783674 -14.328597561567799" fill="#ffc712" stroke="none" /><path d="M 109.2508944713604 118.85261126421891 l 3.5389389806408023 7.212085393078847 a29.03357111288375,29.03357111288375 0 0,0 -0.4505558584953904,0.2162941923122177 l -3.4142704541451794 -7.271933861890625" fill="#ff5b08" stroke="none" /><path d="M 108.92500713936063 119.00905698771935 l 24.395872536063113 51.9599059207456 a78.40200710853735,78.40200710853735 0 0,0 -1.2265508824392763,0.5630493516060593 l -23.497853657856417 -52.372142342685734" fill="#46fff7" stroke="none" /><path d="M 108.59647513512805 119.15986991738527 l 5.786005501150596 12.895880113735677 a35.13441132722507,35.13441132722507 0 0,0 -0.5539179618340309,0.24282135631967552 l -5.563166864658811 -12.993566023349807" fill="#ffae10" stroke="none" /><path d="M 108.2653958097858 119.30500536409082 l 2.2944021822551752 5.358902036291679 a26.829417844734447,26.829417844734447 0 0,0 -0.42611317029938345,0.17811533974394364 l -2.2018175524583303 -5.397602419055595" fill="#ff3c05" stroke="none" /><path d="M 107.59598834532513 119.57807347666477 l 4.052909732300598 10.446061911364684 a32.20474393969987,32.20474393969987 0 0,0 -0.5185420456572664,0.1960682317885001 l -3.8724974658830567 -10.514278393259815" fill="#ff870c" stroke="none" /><line stroke="#e1ed5e" stroke-width="0.3" x1="102.19456741930631" x2="102.32365962044197" y1="184.97166512339345" y2="189.96999836594603" /><path d="M 102.22038585953345 185.97133177190398 a86.0,86.0 0 0,1 -42.740103519485714,-10.115201625700543" fill="none" id="id91" stroke="none" /><text fill="#e1ed5e" style="font-size:6.75px; font-family:Arial;" text-anchor="middle"><textPath startOffset="22.20632615414155" xlink:href="#id91">July</textPath></text><line stroke="#e1ed5e" stroke-width="0.3" x1="58.666819895761336" x2="56.23545636021788" y1="174.27360380694188" y2="178.64263932499728" /><path d="M 58.180547188652646 175.14741091055294 a86.0,86.0 0 0,1 -31.652253787137756,-30.449443065178592" fill="none" id="id92" stroke="none" /><text fill="#e1ed5e" style="font-size:6.75px; font-family:Arial;" text-anchor="middle"><textPath startOffset="22.20632615414155" xlink:href="#id92">August</textPath></text><line stroke="#e1ed5e" stroke-width="0.3" x1="26.63291911575756" x2="22.317208475507996" y1="142.92168965132927" y2="145.44649492493687" /><path d="M 25.769776987707644 143.4266507060508 a86.0,86.0 0 0,1 -11.730757126820373,-40.83630448921669" fill="none" id="id93" stroke="none" /><text fill="#e1ed5e" style="font-size:6.75px; font-family:Arial;" text-anchor="middle"><textPath startOffset="21.46611528233685" xlink:href="#id93">September</textPath></text><line stroke="#e1ed5e" stroke-width="0.3" x1="15.007084014347285" x2="10.007500721073583" y1="101.09737516637583" y2="101.16192664675087" /><path d="M 14.007167355692545 101.11028546245083 a86.0,86.0 0 0,1 10.666146001902534,-42.60595125391555" fill="none" id="id94" stroke="none" /><text fill="#e1ed5e" style="font-size:6.75px; font-family:Arial;" text-anchor="middle"><textPath startOffset="22.20632615414155" xlink:href="#id94">October</textPath></text><line stroke="#e1ed5e" stroke-width="0.3" x1="26.266209847984243" x2="21.928928074336255" y1="57.711370442889674" y2="55.22380399835377" /><path d="M 25.398753493254645 57.213857153982495 a86.0,86.0 0 0,1 29.58750427330803,-30.492523968695096" fill="none" id="id95" stroke="none" /><text fill="#e1ed5e" style="font-size:6.75px; font-family:Arial;" text-anchor="middle"><textPath startOffset="21.46611528233685" xlink:href="#id95">November</textPath></text><line stroke="#e1ed5e" stroke-width="0.3" x1="56.762969772571076" x2="54.21961505331055" y1="26.818313649435495" y2="22.513508569990535" /><path d="M 56.25429882871897 25.957352633546506 a86.0,86.0 0 0,1 42.265352541879196,-11.944610805530505" fill="none" id="id96" stroke="none" /><text fill="#e1ed5e" style="font-size:6.75px; font-family:Arial;" text-anchor="middle"><textPath startOffset="22.20632615414155" xlink:href="#id96">December</textPath></text></svg>