<?xml version="1.0" encoding="utf-8" ?>
<svg baseProfile="full" height="200mm" version="1.1" viewBox="0,0,200,200" width="200mm" xmlns="http://www.w3.org/2000/svg" xmlns:ev="http://www.w3.org/2001/xml-events" xmlns:xlink="http://www.w3.org/1999/xlink"><defs /><rect fill="#1a1a1a" height="200" width="200" x="0" y="0" /><text alignment-baseline="middle" fill="#e1ed5e" style="dominant-baseline: central; font-size:9.0px; font-family:Arial;" text-anchor="middle" x="100.0" y="100.0">2020</text><line stroke="#e1ed5e" stroke-width="0.3" x1="100.0" x2="100.0" y1="15.0" y2="10.0" /><path d="M 100.0 14.0 a86.0,86.0 0 0,1 42.35913384403234,11.155469271406648" fill="none" id="id25" stroke="none" /><text fill="#e1ed5e" style="font-size:6.75px; font-family:Arial;" text-anchor="middle"><textPath startOffset="22.145653131862478" xlink:href="#id25">January</textPath></text><line stroke="#e1ed5e" stroke-width="0.3" x1="143.13028292997686" x2="145.6673583964461" y1="26.7553504044142" y2="22.446841604673864" /><path d="M 143.63769802327073 25.89364864446614 a86.0,86.0 0 0,1 29.32050498858742,28.57503671076993" fill="none" id="id26" stroke="none" /><text fill="#e1ed5e" style="font-size:6.75px; font-family:Arial;" text-anchor="middle"><textPath startOffset="20.669276256404974" xlink:href="#id26">February</textPath></text><line stroke="#e1ed5e" stroke-width="0.3" x1="172.87174338648825" x2="177.1583165268699" y1="56.24261187166439" y2="53.66864786411523" /><path d="M 173.72905801456457 55.72781907015455 a86.0,86.0 0 0,1 12.242430191666344,42.057860355516425" fill="none" id="id27" stroke="none" /><text fill="#e1ed5e" style="font-size:6.75px; font-family:Arial;" text-anchor="middle"><textPath startOffset="22.145653131862474" xlink:href="#id27">March</textPath></text><line stroke="#e1ed5e" stroke-width="0.3" x1="184.99686870605535" x2="189.99668451229388" y1="99.2704041080226" y2="99.22748670261217" /><path d="M 185.99683186730306 99.26182062694052 a86.0,86.0 0 0,1 -10.086455211305974,41.156179273409016" fill="none" id="id28" stroke="none" /><text fill="#e1ed5e" style="font-size:6.75px; font-family:Arial;" text-anchor="middle"><textPath startOffset="21.40746469413373" xlink:href="#id28">April</textPath></text><path d="M 120.65975698304385 103.76489593502545 l 19.869756136163012 3.6209314644109405 a41.19698872556374,41.19698872556374 0 0,0 -0.13275966542233247,0.6946546683844562 l -19.804670178458522 -3.9614886978287114" fill="red" stroke="none" /><line stroke="#e1ed5e" stroke-width="0.3" x1="174.33088141563837" x2="178.70328620479359" y1="141.23008692659167" y2="143.65538615756765" /><path d="M 175.20536237346943 141.71514677278685 a86.0,86.0 0 0,1 -30.301960400862466,31.631185727798858" fill="none" id="id29" stroke="none" /><text fill="#e1ed5e" style="font-size:6.75px; font-family:Arial;" text-anchor="middle"><textPath startOffset="22.145653131862474" xlink:href="#id29">May</textPath></text><path d="M 114.39649973595853 115.28858382429668 l 13.863731918698525 14.722802864865098 a41.22285803023945,41.22285803023945 0 0,0 -0.5193495702929672,0.4807022088242844 l -13.60895257709159 -14.958622819821763" fill="red" stroke="none" /><path d="M 113.03279911837588 116.46651593811092 l 24.97912923506042 31.56031378472691 a61.24935159145143,61.24935159145143 0 0,0 -0.8300455409746373,0.6454484331474524 l -24.43367374945055 -31.98446326949516" fill="red" stroke="none" /><path d="M 112.7482090630111 116.68781488649013 l 9.698960239026958 12.696250293692641 a36.97700226069698,36.97700226069698 0 0,0 -0.5077241943291337,0.38100570085858726 l -9.479583055787058 -12.860875021815243" fill="red" stroke="none" /><path d="M 111.27062007382361 117.71928675628689 l 20.94993764056067 32.93678166311267 a60.03500318261721,60.03500318261721 0 0,0 -0.8743265476889511,0.5456444306697801 l -20.381446964082002 -33.291561890623996" fill="red" stroke="none" /><line stroke="#e1ed5e" stroke-width="0.3" x1="143.1302829299769" x2="145.66735839644613" y1="173.24464959558577" y2="177.55315839532614" /><path d="M 143.63769802327073 174.10635135553383 a86.0,86.0 0 0,1 -40.68552437913181,11.842963189579606" fill="none" id="id30" stroke="none" /><text fill="#e1ed5e" style="font-size:6.75px; font-family:Arial;" text-anchor="middle"><textPath startOffset="21.407464694133747" xlink:href="#id30">June</textPath></text><path d="M 109.3889696526874 118.78422872680471 l 23.089716752788995 46.19490069364311 a72.64401097726216,72.64401097726216 0 0,0 -1.1202389717847652,0.5479650169906776 l -22.293317531742158 -46.58445946073102" fill="red" stroke="none" /><path d="M 109.06512990194946 118.94263497670748 l 6.891802289286848 14.401216144682401 a36.9653363647773,36.9653363647773 0 0,0 -0.5747428342207532,0.2690086668822886 l -6.643570741194589 -14.517401043135223" fill="red" stroke="none" /><path d="M 107.407793817531 119.65005319985036 l 21.026042662466114 55.77407620633386 a80.60572159376801,80.60572159376801 0 0,0 -1.2989452679084899,0.4769906946427087 l -20.065508242903498 -56.126797749985286" fill="red" stroke="none" /><path d="M 105.3480935250658 120.30758222061773 l 15.179416113140546 57.638715428930034 a80.60399474727384,80.60399474727384 0 0,0 -1.3410766242659695,0.3408964336490591 l -14.18773419564918 -57.89079709441437" fill="red" stroke="none" /><path d="M 103.94208987418118 120.62667999033965 l 3.7707814859849993 19.7303221152627 a41.08741904245221,41.08741904245221 0 0,0 -0.6939181153519371,0.1264549962457595 l -3.431528637082005 -19.792145285439826" fill="red" stroke="none" /><path d="M 103.2317021107853 120.74984581791261 l 9.190022684804266 59.00653811389496 a80.71790399146437,80.71790399146437 0 0,0 -1.370954756272597,0.20148313775221036 l -8.175742822923985 -59.15560232494605" fill="red" stroke="none" /><path d="M 102.51750503828377 120.84855314841334 l 6.700900590463395 55.49306951844257 a76.89617905816078,76.89617905816078 0 0,0 -1.3118638219340701,0.14699707753379326 l -5.7473008669285255 -55.599922356483326" fill="red" stroke="none" /><path d="M 101.08105385017728 120.97215588758144 l 1.302151921877292 25.261399411736946 a46.29493822619364,46.29493822619364 0 0,0 -0.794011626840518,0.03409827567828736 l -0.8683145344359444 -25.280030255841066" fill="red" stroke="none" /><path d="M 100.72087961077811 120.9876233191556 l 0.7143969384136318 20.79888738647979 a41.81115276723236,41.81115276723236 0 0,0 -0.7175325133649866,0.01848109228123308 l -0.35725111097790146 -20.80808619611107" fill="red" stroke="none" /><line stroke="#e1ed5e" stroke-width="0.3" x1="101.45913802915013" x2="101.54496967792366" y1="184.9874750549273" y2="189.98673829345242" /><path d="M 101.47630435890484 185.9873277026323 a86.0,86.0 0 0,1 -42.54439059252881,-10.42667462771756" fill="none" id="id31" stroke="none" /><text fill="#e1ed5e" style="font-size:6.75px; font-family:Arial;" text-anchor="middle"><textPath startOffset="22.145653131862474" xlink:href="#id31">July</textPath></text><path d="M 98.91894614982273 120.97215588758144 l -2.254669760657936 43.73999101689571 a64.798063312066,64.798063312066 0 0,0 -1.1103785263679178,-0.06679761483317301 l 3.0051926391583 -43.69484142423784" fill="red" stroke="none" /><path d="M 98.55909050195518 120.95050786540614 l -1.3973326043329233 20.316909394648693 a41.364904756897246,41.364904756897246 0 0,0 -0.7079918713237235,-0.0548030484939909 l 1.7458934704318831 -20.289928579159646" fill="red" stroke="none" /><path d="M 96.76829788921471 120.74984581791261 l -6.012097198992882 38.601976805062904 a60.06735115142506,60.06735115142506 0 0,0 -1.0174908636463504,-0.1674277344123205 l 6.673865565692297 -38.49308307215492" fill="red" stroke="none" /><path d="M 94.30408787586889 120.21278271476187 l -5.559744550272795 19.72957203257208 a41.497969949552036,41.497969949552036 0 0,0 -0.6840050859298283,-0.19910391171724154 l 5.89760964858423 -19.631224426552322" fill="red" stroke="none" /><path d="M 92.25597844496254 119.51999308798841 l -7.750843885528087 19.537189817500913 a42.01850058645691,42.01850058645691 0 0,0 -0.6681852770625776,-0.2717451351938748 l 8.085083623781106 -19.401257425727746" fill="red" stroke="none" /><path d="M 90.6110303473126 118.78422872680471 l -8.804388756588626 17.614675339389432 a40.69248711283667,40.69248711283667 0 0,0 -0.6221547567953675,-0.31767665184786464 l 9.105470735097576 -17.460940735868732" fill="red" stroke="none" /><path d="M 90.28995756902619 118.62028667847754 l -11.073504242334156 21.234904480939576 a44.94877167037216,44.94877167037216 0 0,0 -0.6811048505794555,-0.36264996955028617 l 11.436397908700172 -21.041684043666717" fill="red" stroke="none" /><line stroke="#e1ed5e" stroke-width="0.3" x1="58.13341422392154" x2="55.67067388415222" y1="173.97424548756322" y2="178.32567169271397" /><path d="M 57.64086615596768 174.84453072859336 a86.0,86.0 0 0,1 -31.369924170532247,-30.572349798747897" fill="none" id="id32" stroke="none" /><text fill="#e1ed5e" style="font-size:6.75px; font-family:Arial;" text-anchor="middle"><textPath startOffset="22.145653131862474" xlink:href="#id32">August</textPath></text><path d="M 88.72937992617639 117.7192867562869 l -21.925282634472268 34.4701859940392 a61.852316226441154,61.852316226441154 0 0,0 -0.8910102065086356,-0.5775420509789859 l 22.513778473237913 -34.08873010135632" fill="red" stroke="none" /><path d="M 88.4268655584334 117.5232005979908 l -23.134870174410956 35.02914209815408 a62.97931650372026,62.97931650372026 0 0,0 -0.8970165399702973,-0.6035527606682586 l 23.73278300247826 -34.626839663428704" fill="red" stroke="none" /><path d="M 87.83215693770417 117.11559508785305 l -14.051241412706638 19.764830732143118 a45.25048286340771,45.25048286340771 0 0,0 -0.6292381088506207,-0.4555198653486054 l 14.388460531931212 -19.520710095421446" fill="red" stroke="none" /><path d="M 86.96720088162412 116.46651593811092 l -39.09839735512764 49.399547814332756 a84.0,84.0 0 0,0 -1.1229969185789526,-0.9046068248263577 l 39.94064504406185 -48.72109269571299" fill="red" stroke="none" /><path d="M 86.68645165197938 116.24036423190432 l -13.109943275384689 15.991999149010224 a41.678845457755806,41.678845457755806 0 0,0 -0.5494178164384202,-0.4583438831947045 l 13.382535425985001 -15.76459308190365" fill="red" stroke="none" /><path d="M 85.34317274990678 115.03919595460226 l -35.87074399225053 36.80654337611825 a72.39486267960692,72.39486267960692 0 0,0 -0.8825557041457716,-0.8750125383254967 l 36.49729161652627 -36.18535082756409" fill="red" stroke="none" /><path d="M 85.08716467003676 114.78537596483092 l -14.555588874753306 14.431182879779596 a41.49693164355304,41.49693164355304 0 0,0 -0.49719884348859894,-0.5101698142467451 l 14.801174519392713 -14.179190373465113" fill="red" stroke="none" /><path d="M 81.99639281039703 110.81064883170644 l -18.753779941255956 11.261106014860209 a42.875026188852324,42.875026188852324 0 0,0 -0.3734747366102715,-0.6342417521404783 l 18.944328387996 -10.937513094426171" fill="red" stroke="none" /><line stroke="#e1ed5e" stroke-width="0.3" x1="26.387840678322732" x2="22.057713659400548" y1="142.50000000000003" y2="145.00000000000006" /><path d="M 25.521815274538298 143.00000000000003 a86.0,86.0 0 0,1 -11.493303480769221,-40.785679425670985" fill="none" id="id33" stroke="none" /><text fill="#e1ed5e" style="font-size:6.75px; font-family:Arial;" text-anchor="middle"><textPath startOffset="21.40746469413373" xlink:href="#id33">September</textPath></text><path d="M 81.63589988554817 110.18625677009913 l -21.36406014608956 11.850284029362896 a45.4305607283645,45.4305607283645 0 0,0 -0.37243249042719645,-0.6852338344404143 l 21.564337986132088 -11.481795361447894" fill="red" stroke="none" /><path d="M 81.4637452351635 109.86951160357371 l -21.346835989019688 11.365987798834249 a45.184149465824824,45.184149465824824 0 0,0 -0.3586587202944217,-0.687775387089456 l 21.538802778289057 -10.99786616864029" fill="red" stroke="none" /><path d="M 80.83023694016515 108.57439118712176 l -21.911252306444755 9.800624456794932 a45.003233477592296,45.003233477592296 0 0,0 -0.3093781958973345,-0.7079178571610497 l 22.076264384359057 -9.423044529858032" fill="red" stroke="none" /><path d="M 80.28708602549918 107.23885506374661 l -23.282348195496834 8.549600751512012 a45.802487990252295,45.802487990252295 0 0,0 -0.26469438828863573,-0.7403973134987294 l 23.42568275382941 -8.148668481632361" fill="red" stroke="none" /><path d="M 80.05021161711548 106.5578916946017 l -23.31010857955509 7.662495687687357 a45.537216674971006,45.537216674971006 0 0,0 -0.23773741394634174,-0.744709063128084 l 23.438210709278685 -7.26121759086788" fill="red" stroke="none" /><path d="M 79.94057633289273 106.21446072829308 l -22.707076196718717 7.034710249938935 a44.77179963116351,44.77179963116351 0 0,0 -0.22113789608592455,-0.7360961348672131 l 22.82449041280827 -6.643876511480998" fill="red" stroke="none" /><line stroke="#e1ed5e" stroke-width="0.3" x1="15.003131293944662" x2="10.003315487706104" y1="100.72959589197737" y2="100.7725132973878" /><path d="M 14.003168132696942 100.73817937305945 a86.0,86.0 0 0,1 10.791469493833604,-42.45332614584628" fill="none" id="id34" stroke="none" /><text fill="#e1ed5e" style="font-size:6.75px; font-family:Arial;" text-anchor="middle"><textPath startOffset="22.145653131862435" xlink:href="#id34">October</textPath></text><line stroke="#e1ed5e" stroke-width="0.3" x1="26.387840678322718" x2="22.05771365940052" y1="57.49999999999999" y2="54.99999999999999" /><path d="M 25.521815274538284 56.99999999999999 a86.0,86.0 0 0,1 29.574782752854787,-30.34633250058573" fill="none" id="id35" stroke="none" /><text fill="#e1ed5e" style="font-size:6.75px; font-family:Arial;" text-anchor="middle"><textPath startOffset="21.40746469413373" xlink:href="#id35">November</textPath></text><line stroke="#e1ed5e" stroke-width="0.3" x1="56.869717070023135" x2="54.33264160355391" y1="26.7553504044142" y2="22.446841604673864" /><path d="M 56.362301976729285 25.89364864446614 a86.0,86.0 0 0,1 42.16139366436587,-11.88097634709845" fill="none" id="id36" stroke="none" /><text fill="#e1ed5e" style="font-size:6.75px; font-family:Arial;" text-anchor="middle"><textPath startOffset="22.145653131862474" xlink:href="#id36">December</textPath></text></svg>