<?xml version="1.0" encoding="utf-8" ?>
<svg baseProfile="full" height="200mm" version="1.1" viewBox="0,0,200,200" width="200mm" xmlns="http://www.w3.org/2000/svg" xmlns:ev="http://www.w3.org/2001/xml-events" xmlns:xlink="http://www.w3.org/1999/xlink"><defs /><rect fill="#1a1a1a" height="200" width="200" x="0" y="0" /><text alignment-baseline="middle" fill="#e1ed5e" style="dominant-baseline: central; font-size:9.0px; font-family:Arial;" text-anchor="middle" x="100.0" y="100.0">2021</text><line stroke="#e1ed5e" stroke-width="0.3" x1="100.0" x2="100.0" y1="15.0" y2="10.0" /><path d="M 100.0 14.0 a86.0,86.0 0 0,1 42.46469731375804,11.215312516191453" fill="none" id="id37" stroke="none" /><text fill="#e1ed5e" style="font-size:6.75px; font-family:Arial;" text-anchor="middle"><textPath startOffset="22.20632615414155" xlink:href="#id37">January</textPath></text><line stroke="#e1ed5e" stroke-width="0.3" x1="143.23703022742887" x2="145.7803849466894" y1="26.81831364943548" y2="22.513508569990506" /><path d="M 143.74570117128098 25.957352633546492 a86.0,86.0 0 0,1 28.547481713284135,27.462654790039103" fill="none" id="id38" stroke="none" /><text fill="#e1ed5e" style="font-size:6.75px; font-family:Arial;" text-anchor="middle"><textPath startOffset="19.985693538727396" xlink:href="#id38">February</textPath></text><line stroke="#e1ed5e" stroke-width="0.3" x1="172.23445277983987" x2="176.4835382374775" y1="55.19839476539836" y2="52.563006222186495" /><path d="M 173.08426987136738 54.67131705675599 a86.0,86.0 0 0,1 12.851231095245387,41.99856678651699" fill="none" id="id39" stroke="none" /><text fill="#e1ed5e" style="font-size:6.75px; font-family:Arial;" text-anchor="middle"><textPath startOffset="22.20632615414155" xlink:href="#id39">March</textPath></text><line stroke="#e1ed5e" stroke-width="0.3" x1="184.98032266829074" x2="189.97916517819016" y1="98.17113171792111" y2="98.06355123074" /><path d="M 185.9800911702706 98.14961562048488 a86.0,86.0 0 0,1 -9.607161424134198,41.387399972396054" fill="none" id="id40" stroke="none" /><text fill="#e1ed5e" style="font-size:6.75px; font-family:Arial;" text-anchor="middle"><textPath startOffset="21.466115282336823" xlink:href="#id40">April</textPath></text><line stroke="#e1ed5e" stroke-width="0.3" x1="174.80103733775053" x2="179.2010983576182" y1="140.37084112569926" y2="142.7455964860345" /><path d="M 175.68104954172406 140.8457921977663 a86.0,86.0 0 0,1 -30.038265399797805,32.042727171017184" fill="none" id="id41" stroke="none" /><text fill="#e1ed5e" style="font-size:6.75px; font-family:Arial;" text-anchor="middle"><textPath startOffset="22.206326154141568" xlink:href="#id41">May</textPath></text><path d="M 115.80600337817218 113.82643327865902 l 17.006457796404682 14.87654079291432 a43.59493467005686,43.59493467005686 0 0,0 -0.49893603562414307,0.5605599252083232 l -16.747862911132202 -15.167074887863508" fill="red" stroke="none" /><path d="M 115.32070863581623 114.36230785411682 l 20.471941502350305 19.1913006909397 a49.06076283862781,49.06076283862781 0 0,0 -0.5828732815518093,0.6111403054104015 l -20.13856166941953 -19.540848112932608" fill="red" stroke="none" /><path d="M 114.81725581225074 114.88116024355365 l 16.375230161163913 16.445853884217836 a44.20806482264592,44.20806482264592 0 0,0 -0.5438645548716452,0.5322859352570612 l -16.089715653916475 -16.72528992239747" fill="red" stroke="none" /><path d="M 114.55890576462653 115.13401014063108 l 16.332431766248266 16.977593781266364 a44.55816244958103,44.55816244958103 0 0,0 -0.5573253600427642,0.5269859144154493 l -16.037770571814693 -17.256214332427735" fill="red" stroke="none" /><path d="M 112.92097659922987 116.55440617244103 l 15.233703530942696 19.517481037525087 a45.758792161953444,45.758792161953444 0 0,0 -0.6250896614334065,0.47929209719656174 l -14.895485141015795 -19.77681247654902" fill="red" stroke="none" /><path d="M 112.63410532772338 116.77436683061366 l 14.653447457267678 19.455457795017754 a45.35648497621571,45.35648497621571 0 0,0 -0.6276798201463273,0.464342525239072 l -14.316382666702786 -19.704810268996596" fill="red" stroke="none" /><path d="M 112.34349029814194 116.9893568818739 l 18.759218740158747 25.81984951611852 a52.915089170737545,52.915089170737545 0 0,0 -0.7414983184470232,0.5290393622105314 l -18.311993093862842 -26.13893314017327" fill="red" stroke="none" /><path d="M 111.45004920935366 117.60387380957326 l 19.565099703927498 30.080355111338488 a56.88343475823979,56.88343475823979 0 0,0 -0.8254008444243728,0.5268098714009462 l -19.044417057456197 -30.412679411563243" fill="red" stroke="none" /><path d="M 111.1453310114006 117.79835938074945 l 13.015393999932618 20.784726775354855 a45.52356719769037,45.52356719769037 0 0,0 -0.6677240757222807,0.41017066404363567 l -12.65569072427803 -21.00568590622687" fill="red" stroke="none" /><line stroke="#e1ed5e" stroke-width="0.3" x1="143.8653032363475" x2="146.44561519142675" y1="172.8068346515853" y2="177.08958963109032" /><path d="M 144.38136562736335 173.6633856474863 a86.0,86.0 0 0,1 -40.68145358897372,12.25698825130547" fill="none" id="id42" stroke="none" /><text fill="#e1ed5e" style="font-size:6.75px; font-family:Arial;" text-anchor="middle"><textPath startOffset="21.466115282336833" xlink:href="#id42">June</textPath></text><path d="M 109.2508944713604 118.85261126421891 l 27.752683414081186 56.55783379265672 a84.0,84.0 0 0,0 -1.303549327999069,0.6257828940017598 l -26.775021418081884 -57.02717096315804" fill="red" stroke="none" /><path d="M 108.92500713936063 119.00905698771935 l 10.448832684918264 22.254599112509485 a45.585469003781974,45.585469003781974 0 0,0 -0.7131564521759366,0.3273751490788383 l -10.064208236974908 -22.431161331922397" fill="red" stroke="none" /><path d="M 108.59647513512805 119.15986991738527 l 11.985622280503511 26.713619264128923 a50.27921781126918,50.27921781126918 0 0,0 -0.7926861672233737,0.34749032081161757 l -11.524015438622383 -26.915974138234997" fill="red" stroke="none" /><path d="M 107.59598834532513 119.57807347666477 l 8.73400228165589 22.511216531928184 a45.14617289765248,45.14617289765248 0 0,0 -0.726917403590557,0.2748579621882602 l -8.345214657305059 -22.658222744223075" fill="red" stroke="none" /><path d="M 107.2578585660854 119.70592522655815 l 9.370462763708696 25.44188990162228 a48.1126415934029,48.1126415934029 0 0,0 -0.7796090866984398,0.2795400813273418 l -8.931134116380521 -25.59941752398958" fill="red" stroke="none" /><path d="M 103.7750983002368 120.6578951692458 l 5.707945231996562 31.234718901752753 a52.75198109792495,52.75198109792495 0 0,0 -0.8946510630910929,0.15554655501983455 l -5.169445197433419 -31.328344035293597" fill="red" stroke="none" /><path d="M 103.41894727170886 120.7198165907248 l 3.7022707048757595 22.436839143148802 a43.74024096415241,43.74024096415241 0 0,0 -0.7439259709293742,0.11618593704885162 l -3.3155088703378683 -22.49724338754476" fill="red" stroke="none" /><path d="M 103.06178313531738 120.77559828337769 l 4.209878175250088 28.565947987001618 a49.874494950501365,49.874494950501365 0 0,0 -0.8504109843224444,0.11785921346455376 l -3.7175385997408132 -28.634181765958775" fill="red" stroke="none" /><path d="M 101.62511606390274 120.93702456842531 l 2.066303176517135 26.621015774504027 a47.701087799632376,47.701087799632376 0 0,0 -0.8191804100905365,0.056495477235756646 l -1.6077600056476682 -26.652639596256066" fill="red" stroke="none" /><path d="M 101.26447882468166 120.96189622390904 l 1.4134045192179234 23.430711749331994 a44.47330324890875,44.47330324890875 0 0,0 -0.7645425290438868,0.03951811583561103 l -1.0098739217605572 -23.45156967192981" fill="red" stroke="none" /><path d="M 100.90346689309514 120.98055641714683 l 1.0261185635112389 23.82880720584642 a44.85089038505231,44.85089038505231 0 0,0 -0.7716054240662104,0.026575650944303714 l -0.6157927877703762 -23.84293965521682" fill="red" stroke="none" /><line stroke="#e1ed5e" stroke-width="0.3" x1="102.19456741930631" x2="102.32365962044197" y1="184.97166512339345" y2="189.96999836594603" /><path d="M 102.22038585953345 185.97133177190398 a86.0,86.0 0 0,1 -42.740103519485714,-10.115201625700543" fill="none" id="id43" stroke="none" /><text fill="#e1ed5e" style="font-size:6.75px; font-family:Arial;" text-anchor="middle"><textPath startOffset="22.20632615414155" xlink:href="#id43">July</textPath></text><path d="M 98.73552117531835 120.96189622390904 l -1.420122712270655 23.542082586735575 a44.5848765321887,44.5848765321887 0 0,0 -0.7656650849324192,-0.05280474709012191 l 1.8251505579820044 -23.514149495129168" fill="red" stroke="none" /><path d="M 98.37488393609728 120.93702456842531 l -1.915577464731424 24.679155743182992 a45.75338694440963,45.75338694440963 0 0,0 -0.7846829662190042,-0.06770574809910326 l 2.34010474869197 -24.642525742805226" fill="red" stroke="none" /><path d="M 96.58105272829116 120.7198165907248 l -4.457237253350772 27.01215638947668 a48.377427869363544,48.377427869363544 0 0,0 -0.820460509200502,-0.14264757624611818 l 4.921546734023323 -26.931430234709556" fill="red" stroke="none" /><path d="M 96.22490169976321 120.6578951692458 l -4.111953124478557 22.501214493143816 a43.87384559195009,43.87384559195009 0 0,0 -0.7417445742106268,-0.14215711301442835 l 4.4986653132608785 -22.427100181780922" fill="red" stroke="none" /><path d="M 95.86986931433489 120.58985236759428 l -4.406355680659096 21.966910940318332 a43.40448943056623,43.40448943056623 0 0,0 -0.7312799510872507,-0.15324682385212104 l 4.7838270931757325 -21.88780813573967" fill="red" stroke="none" /><path d="M 95.51606077576429 120.51570834832081 l -6.146157955080849 28.120984197916517 a49.784805190729955,49.784805190729955 0 0,0 -0.8356257474349491,-0.19018569955232825 l 6.62930385190866 -28.011021764786502" fill="red" stroke="none" /><path d="M 95.16358092515715 120.4354850818985 l -5.310545258881308 22.438826481996294 a44.058682200762576,44.058682200762576 0 0,0 -0.7365074126247847,-0.18101560288684956 l 5.696005956249302 -22.344089620795412" fill="red" stroke="none" /><path d="M 92.7421414339146 119.70592522655815 l -4.612714028428945 12.524051951145044 a34.34649796699663,34.34649796699663 0 0,0 -0.5530273226303791,-0.2091076127518802 l 4.827611571819607 -12.442796088286531" fill="red" stroke="none" /><path d="M 91.7346041902142 119.30500536409082 l -9.141650042845264 21.35162152849671 a44.22631067134893,44.22631067134893 0 0,0 -0.6972579571165357,-0.30565739787736007 l 9.507828674619542 -21.1910995773249" fill="red" stroke="none" /><path d="M 91.07499286063937 119.00905698771935 l -9.804478375485074 20.882211662612654 a44.069342429672986,44.069342429672986 0 0,0 -0.6838876393995171,-0.3283076266951773 l 10.162478682884833 -20.710349759417912" fill="red" stroke="none" /><path d="M 90.42595943632237 118.69057910512821 l -11.219332849802486 21.902542269514623 a45.60883555681845,45.60883555681845 0 0,0 -0.6956630930486664,-0.36393805121480616 l 11.594686845377648 -21.7061747993551" fill="red" stroke="none" /><line stroke="#e1ed5e" stroke-width="0.3" x1="58.666819895761336" x2="56.23545636021788" y1="174.27360380694188" y2="178.64263932499728" /><path d="M 58.180547188652646 175.14741091055294 a86.0,86.0 0 0,1 -31.652253787137756,-30.449443065178592" fill="none" id="id44" stroke="none" /><text fill="#e1ed5e" style="font-size:6.75px; font-family:Arial;" text-anchor="middle"><textPath startOffset="22.20632615414155" xlink:href="#id44">August</textPath></text><path d="M 85.44109423537348 115.13401014063109 l -17.501671966192326 18.193021185555303 a46.24469333286238,46.24469333286238 0 0,0 -0.5689199392815137,-0.5568079023615039 l 17.81224185784963 -17.88906318027123" fill="red" stroke="none" /><path d="M 85.18274418774928 114.88116024355367 l -18.374512016665946 18.453758319474808 a47.04157998210145,47.04157998210145 0 0,0 -0.5688881070787917,-0.5762806489792607 l 18.689440748800273 -18.134737176514882" fill="red" stroke="none" /><path d="M 84.9287848128048 114.62390073753433 l -18.24719986977658 17.705622029753716 a46.4253683266944,46.4253683266944 0 0,0 -0.5515631070156716,-0.5783117125856885 l 18.54926952817121 -17.388903200585528" fill="red" stroke="none" /><path d="M 84.19399662182784 113.82643327865904 l -16.039687042769845 14.030850013210307 a42.31047424444615,42.31047424444615 0 0,0 -0.47479905615792284,-0.5522985683685208 l 16.27882860849855 -13.752674345680255" fill="red" stroke="none" /><path d="M 83.72743513129214 113.27417163493432 l -18.26018579513564 14.8955522553506 a44.56505595717425,44.56505595717425 0 0,0 -0.47977909048523393,-0.5985981847879156 l 18.513882797675734 -14.579026236984424" fill="red" stroke="none" /><path d="M 83.06392112726016 112.41649034213515 l -7.217510234832696 5.291434150634896 a29.94939826806361,29.94939826806361 0 0,0 -0.3012341962098104,-0.41838795184808325 l 7.307524223418114 -5.166412593335675" fill="red" stroke="none" /><path d="M 82.85270091963577 112.12312394758628 l -19.009175563744286 13.439468829501823 a44.28020786059274,44.28020786059274 0 0,0 -0.43466104185974935,-0.6261616493513498 l 19.237697512766168 -13.11026591796346" fill="red" stroke="none" /><path d="M 82.6465618267979 111.8261652097733 l -26.44800810589381 18.024008280545186 a53.005655863715496,53.005655863715496 0 0,0 -0.5073320106797298,-0.7583925202550611 l 26.75434322198427 -17.566078846084302" fill="red" stroke="none" /><path d="M 82.05923443525364 110.91462005526583 l -20.18178885043619 12.277990955467082 a44.623159464942916,44.623159464942916 0 0,0 -0.3935744056988039,-0.6596533423087162 l 20.390144131833228 -11.928775519272255" fill="red" stroke="none" /><line stroke="#e1ed5e" stroke-width="0.3" x1="26.63291911575756" x2="22.317208475507996" y1="142.92168965132927" y2="145.44649492493687" /><path d="M 25.769776987707644 143.4266507060508 a86.0,86.0 0 0,1 -11.730757126820373,-40.83630448921669" fill="none" id="id45" stroke="none" /><text fill="#e1ed5e" style="font-size:6.75px; font-family:Arial;" text-anchor="middle"><textPath startOffset="21.46611528233685" xlink:href="#id45">September</textPath></text><path d="M 81.87401531095188 110.60418214915194 l -23.950683565775574 14.011785593178796 a48.74825001287694,48.74825001287694 0 0,0 -0.41748930742289375,-0.7279277977702734 l 24.188324869350843 -13.597437949550216" fill="red" stroke="none" /><path d="M 81.35079622478065 109.6543875284942 l -17.13328082441217 8.869619030770018 a40.292989751699125,40.292989751699125 0 0,0 -0.31355876111957115,-0.618681183016298 l 17.283418255318008 -8.573383636051034" fill="red" stroke="none" /><line stroke="#e1ed5e" stroke-width="0.3" x1="15.007084014347285" x2="10.007500721073583" y1="101.09737516637583" y2="101.16192664675087" /><path d="M 14.007167355692545 101.11028546245083 a86.0,86.0 0 0,1 10.666146001902534,-42.60595125391555" fill="none" id="id46" stroke="none" /><text fill="#e1ed5e" style="font-size:6.75px; font-family:Arial;" text-anchor="middle"><textPath startOffset="22.20632615414155" xlink:href="#id46">October</textPath></text><line stroke="#e1ed5e" stroke-width="0.3" x1="26.266209847984243" x2="21.928928074336255" y1="57.711370442889674" y2="55.22380399835377" /><path d="M 25.398753493254645 57.213857153982495 a86.0,86.0 0 0,1 29.58750427330803,-30.492523968695096" fill="none" id="id47" stroke="none" /><text fill="#e1ed5e" style="font-size:6.75px; font-family:Arial;" text-anchor="middle"><textPath startOffset="21.46611528233685" xlink:href="#id47">November</textPath></text><line stroke="#e1ed5e" stroke-width="0.3" x1="56.762969772571076" x2="54.21961505331055" y1="26.818313649435495" y2="22.513508569990535" /><path d="M 56.25429882871897 25.957352633546506 a86.0,86.0 0 0,1 42.265352541879196,-11.944610805530505" fill="none" id="id48" stroke="none" /><text fill="#e1ed5e" style="font-size:6.75px; font-family:Arial;" text-anchor="middle"><textPath startOffset="22.20632615414155" xlink:href="#id48">December</textPath></text></svg>