<?xml version="1.0" encoding="utf-8" ?>
<svg baseProfile="full" height="200mm" version="1.1" viewBox="0,0,200,200" width="200mm" xmlns="http://www.w3.org/2000/svg" xmlns:ev="http://www.w3.org/2001/xml-events" xmlns:xlink="http://www.w3.org/1999/xlink"><defs /><rect fill="#1a1a1a" height="200" width="200" x="0" y="0" /><text alignment-baseline="middle" fill="#e1ed5e" style="dominant-baseline: central; font-size:9.0px; font-family:Arial;" text-anchor="middle" x="100.0" y="100.0">2024</text><line stroke="#e1ed5e" stroke-width="0.3" x1="100.0" x2="100.0" y1="15.0" y2="10.0" /><path d="M 100.0 14.0 a86.0,86.0 0 0,1 42.35913384403234,11.155469271406648" fill="none" id="id73" stroke="none" /><text fill="#e1ed5e" style="font-size:6.75px; font-family:Arial;" text-anchor="middle"><textPath startOffset="22.145653131862478" xlink:href="#id73">January</textPath></text><line stroke="#e1ed5e" stroke-width="0.3" x1="143.13028292997686" x2="145.6673583964461" y1="26.7553504044142" y2="22.446841604673864" /><path d="M 143.63769802327073 25.89364864446614 a86.0,86.0 0 0,1 29.32050498858742,28.57503671076993" fill="none" id="id74" stroke="none" /><text fill="#e1ed5e" style="font-size:6.75px; font-family:Arial;" text-anchor="middle"><textPath startOffset="20.669276256404974" xlink:href="#id74">February</textPath></text><line stroke="#e1ed5e" stroke-width="0.3" x1="172.87174338648825" x2="177.1583165268699" y1="56.24261187166439" y2="53.66864786411523" /><path d="M 173.72905801456457 55.72781907015455 a86.0,86.0 0 0,1 12.242430191666344,42.057860355516425" fill="none" id="id75" stroke="none" /><text fill="#e1ed5e" style="font-size:6.75px; font-family:Arial;" text-anchor="middle"><textPath startOffset="22.145653131862474" xlink:href="#id75">March</textPath></text><line stroke="#e1ed5e" stroke-width="0.3" x1="184.99686870605535" x2="189.99668451229388" y1="99.2704041080226" y2="99.22748670261217" /><path d="M 185.99683186730306 99.26182062694052 a86.0,86.0 0 0,1 -10.086455211305974,41.156179273409016" fill="none" id="id76" stroke="none" /><text fill="#e1ed5e" style="font-size:6.75px; font-family:Arial;" text-anchor="middle"><textPath startOffset="21.40746469413373" xlink:href="#id76">April</textPath></text><path d="M 120.35273937422433 105.17358676015961 l 5.695991092631669 1.4478986617470682 a26.877135787271573,26.877135787271573 0 0,0 -0.11750494243386513,0.4461854058124903 l -5.670296669393073 -1.5454645719323616" fill="#ff3204" stroke="none" /><path d="M 120.26092885502905 105.52220625578681 l 7.4466673262853496 2.0296222936377903 a28.71830427770228,28.71830427770228 0 0,0 -0.13371995701594175,0.47452495349071555 l -7.4107288771948285 -2.157155171031514" fill="#ff4d07" stroke="none" /><path d="M 119.58574465831526 107.57618678355244 l 8.95412091980871 3.4636463282075973 a30.600683690938993,30.600683690938993 0 0,0 -0.19371883032456838,0.48829799892395875 l -8.893343414518018 -3.6168453443451205" fill="#ff6709" stroke="none" /><path d="M 119.0197475246899 108.90220220490707 l 5.24470780765762 2.4547880748056476 a26.790763721644392,26.790763721644392 0 0,0 -0.1985332633420462,0.4148581629717398 l -5.201795286355662 -2.544458739842491" fill="#ff3104" stroke="none" /><line stroke="#e1ed5e" stroke-width="0.3" x1="174.33088141563837" x2="178.70328620479359" y1="141.23008692659167" y2="143.65538615756765" /><path d="M 175.20536237346943 141.71514677278685 a86.0,86.0 0 0,1 -30.301960400862466,31.631185727798858" fill="none" id="id77" stroke="none" /><text fill="#e1ed5e" style="font-size:6.75px; font-family:Arial;" text-anchor="middle"><textPath startOffset="22.145653131862474" xlink:href="#id77">May</textPath></text><path d="M 118.18653347947321 110.5 l 6.3661761194769255 3.675513496288568 a28.35102699257714,28.35102699257714 0 0,0 -0.2469594372268101,0.4193911149010539 l -6.30214297212035 -3.7842557794831717" fill="#ff4706" stroke="none" /><path d="M 117.423217284605 111.72311816256416 l 15.769603697052444 10.61049314242915 a40.00691888464898,40.00691888464898 0 0,0 -0.388277174623259,0.566508001579281 l -15.585136785613864 -10.879635879078474" fill="#ffe515" stroke="none" /><path d="M 117.21940702142032 112.02048342749411 l 28.344191809672445 19.786447204021016 a55.5672779128038,55.5672779128038 0 0,0 -0.5527221605606817,0.7774729381211304 l -28.000354550581804 -20.27009736885165" fill="#64ff29" stroke="none" /><path d="M 117.01052211995028 112.31430620078461 l 8.323507773229702 6.025577737202401 a31.275620113554435,31.275620113554435 0 0,0 -0.31856152278822375,0.43218988717413787 l -8.21884423085765 -6.167573933645416" fill="#ff710a" stroke="none" /><path d="M 116.79662413953412 112.60449989151573 l 19.13551682467145 14.359648566105186 a44.92420345778164,44.92420345778164 0 0,0 -0.46817014741278246,0.612849751426967 l -18.88619469990436 -14.68601923077303" fill="#dcff1b" stroke="none" /><path d="M 116.35404254752997 113.17365903436017 l 4.426531510296888 3.565700446970522 a26.684047931639654,26.684047931639654 0 0,0 -0.2904154300173888,0.3542596037328184 l -4.364669261040872 -3.6411623324018336" fill="#ff2f04" stroke="none" /><path d="M 116.1254893667686 113.45245675266167 l 19.152485019145796 15.977684184705753 a45.94201423932719,45.94201423932719 0 0,0 -0.5104057945461233,0.6012567425782178 l -18.875384661092557 -16.30410770973353" fill="#d0ff1d" stroke="none" /><path d="M 114.65682725009322 115.03919595460226 l 2.3681780890889232 2.429959344508023 a24.393076756809773,24.393076756809773 0 0,0 -0.3023899540093773,0.28968273560348845 l -2.3261156492142336 -2.470254210417092" fill="#ff0e01" stroke="none" /><path d="M 113.31354834802062 116.24036423190432 l 1.5664335658869728 1.910794251847016 a23.470799220743963,23.470799220743963 0 0,0 -0.3137813714462098,0.25276006141922386 l -1.5334014240855105 -1.9374026070596435" fill="#ff0000" stroke="none" /><path d="M 112.7482090630111 116.68781488649013 l 13.413583923832567 17.558811938125395 a43.096065495018664,43.096065495018664 0 0,0 -0.5917438892949756,0.4440556463288506 l -13.110187045626825 -17.78648661171826" fill="#f2ff19" stroke="none" /><path d="M 111.5731344415666 117.5232005979908 l 5.308580521576924 8.037867514618355 a30.632670519467744,30.632670519467744 0 0,0 -0.4412772835464821,0.2860306038339424 l -5.1698176057734315 -8.127811960156192" fill="#ff6809" stroke="none" /><line stroke="#e1ed5e" stroke-width="0.3" x1="143.1302829299769" x2="145.66735839644613" y1="173.24464959558577" y2="177.55315839532614" /><path d="M 143.63769802327073 174.10635135553383 a86.0,86.0 0 0,1 -40.68552437913181,11.842963189579606" fill="none" id="id78" stroke="none" /><text fill="#e1ed5e" style="font-size:6.75px; font-family:Arial;" text-anchor="middle"><textPath startOffset="21.407464694133747" xlink:href="#id78">June</textPath></text><path d="M 110.65571695917076 118.09573695890943 l 24.18201783206606 41.06635297290952 a68.65726946569595,68.65726946569595 0 0,0 -1.020729364920407,0.5893183736065549 l -23.47349599928525 -41.47541824379225" fill="#39ff8e" stroke="none" /><path d="M 110.02825361518725 118.45085714620011 l 4.76521778197327 8.767464001166429 a30.97876372710485,30.97876372710485 0 0,0 -0.4694185281462186,0.249938926134116 l -4.6140104380404985 -8.847973395023114" fill="#ff6d0a" stroke="none" /><path d="M 109.71004243097381 118.62028667847754 l 10.531547250345918 20.195630489094185 a43.77667619162856,43.77667619162856 0 0,0 -0.6693094785233836,0.3417541887528842 l -10.183310550108951 -20.373442629519907" fill="#eaff1a" stroke="none" /><path d="M 109.06512990194946 118.94263497670748 l 4.19967706110952 8.77570982976663 a30.728842193903247,30.728842193903247 0 0,0 -0.4777768469509941,0.22362368874031843 l -4.04841150028702 -8.846509750077482" fill="#ff6909" stroke="none" /><path d="M 108.4095320186766 119.2426549942271 l 3.8295847307067543 8.762839309070966 a30.563109952638925,30.563109952638925 0 0,0 -0.4825550120954558,0.20597404016882778 l -3.6785946434408676 -8.827287998899198" fill="#ff6709" stroke="none" /><path d="M 108.07796709384702 119.3841803445677 l 12.765759418727914 30.633175393406926 a54.18668480309644,54.18668480309644 0 0,0 -0.8616857929939901,0.35044011047532153 l -12.238019164543482 -30.84780276046154" fill="#73ff27" stroke="none" /><path d="M 105.69591212413111 120.21278271476187 l 3.0963908050039572 10.987998616828898 a32.41594278282555,32.41594278282555 0 0,0 -0.5368984669573078,0.1463340646506489 l -2.9073109371119545 -11.039533175623689" fill="#ff800b" stroke="none" /><path d="M 102.51750503828377 120.84855314841334 l 1.1470565888976654 9.499274040847071 a30.56827811684237,30.56827811684237 0 0,0 -0.52150079043555,0.058435251314859146 l -0.9838198968613162 -9.517565052668902" fill="#ff6709" stroke="none" /><path d="M 101.08105385017728 120.97215588758144 l 0.39911135783633533 7.742653718568502 a28.752933411400914,28.752933411400914 0 0,0 -0.49314599628315803,0.02117781095702302 l -0.26613960095234773 -7.748364097951356" fill="#ff4d07" stroke="none" /><path d="M 100.72087961077811 120.9876233191556 l 0.49159229531717696 14.312173303916248 a35.32061338302756,35.32061338302756 0 0,0 -0.6061466096237065,0.01561218651385912 l -0.24583237162272664 -14.318503207780152" fill="#ffa80f" stroke="none" /><line stroke="#e1ed5e" stroke-width="0.3" x1="101.45913802915013" x2="101.54496967792366" y1="184.9874750549273" y2="189.98673829345242" /><path d="M 101.47630435890484 185.9873277026323 a86.0,86.0 0 0,1 -42.54439059252881,-10.42667462771756" fill="none" id="id79" stroke="none" /><text fill="#e1ed5e" style="font-size:6.75px; font-family:Arial;" text-anchor="middle"><textPath startOffset="22.145653131862474" xlink:href="#id79">July</textPath></text><path d="M 100.0 121.0 l 1.2389686601938538e-15 10.116946870366803 a31.116946870366803,31.116946870366803 0 0,0 -0.5341637709364222,-0.0045851535339042895 l 0.17367084608756878 -10.115456115027333" fill="#ff6f0a" stroke="none" /><path d="M 99.27912038922189 120.98762331915562 l -0.3995117406284083 11.631348422850817 a32.638207583844434,32.638207583844434 0 0,0 -0.5597829329458621,-0.024039487738415053 l 0.5991204341751092 -11.622776366686573" fill="#ff840c" stroke="none" /><path d="M 98.55909050195518 120.95050786540614 l -0.6646017521997727 9.663163616949749 a30.685991254227332,30.685991254227332 0 0,0 -0.525214127753583,-0.04065489517442184 l 0.8303848747285919 -9.650330954780273" fill="#ff6809" stroke="none" /><path d="M 96.76829788921471 120.74984581791261 l -1.4535370847704407 9.332750781375672 a30.44526374454791,30.44526374454791 0 0,0 -0.5157173923532675,-0.08486110065824479 l 1.613531980176772 -9.306423682221759" fill="#ff6509" stroke="none" /><path d="M 96.05791012581884 120.62667999033965 l -2.642733338077064 13.827897537632976 a35.078167132388366,35.078167132388366 0 0,0 -0.5904883505919867,-0.11811420770915065 l 2.8797181742000086 -13.780493933260964" fill="#ffa50f" stroke="none" /><path d="M 95.35216902796893 120.47920084513623 l -3.3833386410522315 14.907614320350476 a36.28672447204946,36.28672447204946 0 0,0 -0.6062783268258142,-0.1430800343205955 l 3.6387491216179333 -14.847338142383654" fill="#ffb510" stroke="none" /><path d="M 95.00130118170881 120.39639698878247 l -3.6743750468150433 14.992704074564646 a36.436392306887136,36.436392306887136 0 0,0 -0.6062229812376142,-0.15409951121407559 l 3.931203321278036 -14.927419331515306" fill="#ffb710" stroke="none" /><path d="M 93.61358852112213 120.00534299687104 l -1.7964887506417375 5.6274754242617355 a26.90727106893294,26.90727106893294 0 0,0 -0.4388156444313441,-0.14424741831078633 l 1.8928271327208253 -5.595807084548928" fill="#ff3304" stroke="none" /><path d="M 93.27111125876986 119.89276391827306 l -3.0932326603949742 9.144592729033574 a30.65358298618849,30.65358298618849 0 0,0 -0.4970175272826716,-0.17288849601299772 l 3.249755959722668 -9.090145800451985" fill="#ff6809" stroke="none" /><path d="M 92.93061703081489 119.77432235084164 l -4.9019244729661855 13.711555179629253 a35.561442544702864,35.561442544702864 0 0,0 -0.5730656161883908,-0.2104376320502583 l 5.136579240808695 -13.625386698570274" fill="#ffab0f" stroke="none" /><path d="M 92.25597844496254 119.51999308798841 l -3.8396167305015 9.678342384153057 a31.412154817425666,31.412154817425666 0 0,0 -0.49952137931783347,-0.20315099631002909 l 4.005192571009775 -9.611004131263737" fill="#ff730a" stroke="none" /><path d="M 91.26138138417905 119.09545874513695 l -26.215855847462862 57.28637623541087 a84.0,84.0 0 0,0 -1.3060451445140404,-0.6112950737178937 l 27.19538970584839 -56.82790493012245" fill="#4dd2ff" stroke="none" /><path d="M 90.93487009805054 118.94263497670748 l -4.106541158346318 8.581091613772827 a30.51308643759504,30.51308643759504 0 0,0 -0.4705404907712242,-0.2301649331208939 l 4.2532418983796125 -8.509332930554713" fill="#ff6609" stroke="none" /><line stroke="#e1ed5e" stroke-width="0.3" x1="58.13341422392154" x2="55.67067388415222" y1="173.97424548756322" y2="178.32567169271397" /><path d="M 57.64086615596768 174.84453072859336 a86.0,86.0 0 0,1 -31.369924170532247,-30.572349798747897" fill="none" id="id80" stroke="none" /><text fill="#e1ed5e" style="font-size:6.75px; font-family:Arial;" text-anchor="middle"><textPath startOffset="22.145653131862474" xlink:href="#id80">August</textPath></text><path d="M 89.65649057296885 118.27599006163327 l -5.049648218102952 8.922244553440938 a31.25209222539462,31.25209222539462 0 0,0 -0.464625647042364,-0.2682517423923149 l 5.202066333005716 -8.834245913772452" fill="#ff700a" stroke="none" /><path d="M 89.03521579738668 117.91015095944536 l -5.479607770924354 8.95052748529373 a31.49466738816305,31.49466738816305 0 0,0 -0.4586761447208131,-0.2862478378467731 l 5.63244804443488 -8.85514385060541" fill="#ff740a" stroke="none" /><path d="M 88.72937992617639 117.7192867562869 l -5.086795142626743 7.997286858425002 a30.477978788696895,30.477978788696895 0 0,0 -0.43904888015937676,-0.2845861796812266 l 5.223329655043129 -7.908786837039881" fill="#ff6609" stroke="none" /><path d="M 88.4268655584334 117.5232005979908 l -5.699921237348595 8.630407236614365 a31.342776763605755,31.342776763605755 0 0,0 -0.44641623196863817,-0.30036876379193084 l 5.847233757414238 -8.531288798765313" fill="#ff720a" stroke="none" /><path d="M 88.1277618465304 117.32195027204791 l -4.443826340908219 6.483675436744259 a28.860384196538398,28.860384196538398 0 0,0 -0.4062510113860874,-0.2835947569910202 l 4.554472443468072 -6.40643586394811" fill="#ff4f07" stroke="none" /><path d="M 87.83215693770417 117.11559508785305 l -4.69161636002981 6.5993459575954 a29.097075468200238,29.097075468200238 0 0,0 -0.404614218061745,-0.2929094909179635 l 4.804211588465509 -6.51783569530437" fill="#ff5207" stroke="none" /><path d="M 85.08716467003676 114.78537596483092 l -3.074018461582934 3.0477449573934816 a25.328780293277784,25.328780293277784 0 0,0 -0.30347883012095056,-0.3113960147298193 l 3.125884092854694 -2.994526250595925" fill="#ff1c02" stroke="none" /><path d="M 83.4222238831116 112.89097897827486 l -4.754580664133264 3.697190682254077 a27.022894340157087,27.022894340157087 0 0,0 -0.28161461869081855,-0.3686425758169837 l 4.817347260178377 -3.615027193196223" fill="#ff3405" stroke="none" /><path d="M 83.20337586046588 112.60449989151573 l -7.281505847786509 5.464177736315166 a30.10371164665223,30.10371164665223 0 0,0 -0.306624910678554,-0.4159955803546392 l 7.374232778048893 -5.338375846691647" fill="#ff6008" stroke="none" /><path d="M 82.37810715431573 111.42229804090323 l -8.17086787877122 5.2962578413944215 a30.73721875151561,30.73721875151561 0 0,0 -0.283195620811582,-0.4452305534581596 l 8.260581191208693 -5.15521361325759" fill="#ff6909" stroke="none" /><path d="M 81.99639281039703 110.81064883170644 l -10.04977555848609 6.034601469365628 a32.72238899158419,32.72238899158419 0 0,0 -0.28503739113909293,-0.4840558052799686 l 10.151886659754952 -5.8611944957921" fill="#ff850c" stroke="none" /><line stroke="#e1ed5e" stroke-width="0.3" x1="26.387840678322732" x2="22.057713659400548" y1="142.50000000000003" y2="145.00000000000006" /><path d="M 25.521815274538298 143.00000000000003 a86.0,86.0 0 0,1 -11.493303480769221,-40.785679425670985" fill="none" id="id81" stroke="none" /><text fill="#e1ed5e" style="font-size:6.75px; font-family:Arial;" text-anchor="middle"><textPath startOffset="21.40746469413373" xlink:href="#id81">September</textPath></text><path d="M 80.83023694016515 108.57439118712176 l -10.599265533273968 4.740916655818635 a32.611232517793624,32.611232517793624 0 0,0 -0.22418843053504212,-0.5129870024755459 l 10.679087845825979 -4.55826758356724" fill="#ff830c" stroke="none" /><path d="M 80.68587082218212 108.24405325689762 l -8.742874897738757 3.731813410367533 a30.50601350763344,30.50601350763344 0 0,0 -0.20144741236807773,-0.4834004553278836 l 8.80564815464332 -3.5811804455983682" fill="#ff6609" stroke="none" /><path d="M 80.41425534168474 107.57618678355246 l -4.808718184080379 1.8601154966344775 a26.15594804422281,26.15594804422281 0 0,0 -0.15839209652233124,-0.4201538541385844 l 4.8399409644171465 -1.7772933623017482" fill="#ff2803" stroke="none" /><path d="M 80.28708602549918 107.23885506374661 l -9.911729548075698 3.6397243818130893 a31.558881390079232,31.558881390079232 0 0,0 -0.18238002281444665,-0.510149383221551 l 9.972749740934088 -3.469040042210617" fill="#ff750a" stroke="none" /><path d="M 80.16572619554312 106.89939002012753 l -9.665731703599986 3.362243231615713 a31.233818882241543,31.233818882241543 0 0,0 -0.17180768670796026,-0.5079188975268 l 9.722024811880313 -3.1958226596147514" fill="#ff700a" stroke="none" /><path d="M 80.05021161711548 106.5578916946017 l -11.289812725395405 3.7111856870119855 a32.88413945466741,32.88413945466741 0 0,0 -0.17167914169204046,-0.5377824661496886 l 11.3518565828647 -3.5168341871709052" fill="#ff870c" stroke="none" /><path d="M 79.48165901384964 104.47187691870673 l -9.485079173339017 2.067228859096894 a30.707737227613478,30.707737227613478 0 0,0 -0.10783137326514428,-0.516012156470257 l 9.519168257428529 -1.9041002513412282" fill="#ff6909" stroke="none" /><path d="M 79.22317932658666 103.0534771498775 l -18.83136875905566 2.7675627137829446 a40.03365053567652,40.03365053567652 0 0,0 -0.0940895322022852,-0.6807849843677138 l 18.876102807813158 -2.443889421215145" fill="#ffe515" stroke="none" /><path d="M 79.17382384314188 102.69636545807758 l -8.255558776934745 1.0688473657189232 a29.324463070410523,29.324463070410523 0 0,0 -0.06034962454565471,-0.4997814644631522 l 8.27269048774006 -0.9269722243323718" fill="#ff5507" stroke="none" /><path d="M 79.13060592940153 102.33845913500099 l -9.555677299892444 1.0707335726884477 a30.615479137482538,30.615479137482538 0 0,0 -0.05404012212637826,-0.5227891603258332 l 9.572649814500489 -0.906539890079683" fill="#ff6809" stroke="none" /><path d="M 79.01933749520258 100.90099992219065 l -5.903907554918162 0.2535391933589187 a26.90934907917859,26.90934907917859 0 0,0 -0.015857696074567215,-0.4616795189469198 l 5.907389937989578 -0.1521534098478791" fill="#ff3304" stroke="none" /><line stroke="#e1ed5e" stroke-width="0.3" x1="15.003131293944662" x2="10.003315487706104" y1="100.72959589197737" y2="100.7725132973878" /><path d="M 14.003168132696942 100.73817937305945 a86.0,86.0 0 0,1 10.791469493833604,-42.45332614584628" fill="none" id="id82" stroke="none" /><text fill="#e1ed5e" style="font-size:6.75px; font-family:Arial;" text-anchor="middle"><textPath startOffset="22.145653131862435" xlink:href="#id82">October</textPath></text><path d="M 79.48165901384962 95.52812308129327 l -9.364074905527557 -2.0408565421217353 a30.583892437932096,30.583892437932096 0 0,0 0.11620297275408316,-0.5120117388418728 l 9.327661071215813 2.2013026149026165" fill="#ff6709" stroke="none" /><path d="M 79.73907114497095 94.47779374421319 l -13.360375207560637 -3.6414296737702343 a34.84773034673247,34.84773034673247 0 0,0 0.16226017243246899,-0.5758041095371748 l 13.295896543053585 3.8702417072104223" fill="#ffa20e" stroke="none" /><line stroke="#e1ed5e" stroke-width="0.3" x1="26.387840678322718" x2="22.05771365940052" y1="57.49999999999999" y2="54.99999999999999" /><path d="M 25.521815274538284 56.99999999999999 a86.0,86.0 0 0,1 29.574782752854787,-30.34633250058573" fill="none" id="id83" stroke="none" /><text fill="#e1ed5e" style="font-size:6.75px; font-family:Arial;" text-anchor="middle"><textPath startOffset="21.40746469413373" xlink:href="#id83">November</textPath></text><line stroke="#e1ed5e" stroke-width="0.3" x1="56.869717070023135" x2="54.33264160355391" y1="26.7553504044142" y2="22.446841604673864" /><path d="M 56.362301976729285 25.89364864446614 a86.0,86.0 0 0,1 42.16139366436587,-11.88097634709845" fill="none" id="id84" stroke="none" /><text fill="#e1ed5e" style="font-size:6.75px; font-family:Arial;" text-anchor="middle"><textPath startOffset="22.145653131862474" xlink:href="#id84">December</textPath></text></svg>